<?xml version="1.0" encoding="UTF-8" standalone="no"?>
<svg
   xmlns:dc="http://purl.org/dc/elements/1.1/"
   xmlns:cc="http://creativecommons.org/ns#"
   xmlns:rdf="http://www.w3.org/1999/02/22-rdf-syntax-ns#"
   xmlns:svg="http://www.w3.org/2000/svg"
   xmlns="http://www.w3.org/2000/svg"
   xmlns:sodipodi="http://sodipodi.sourceforge.net/DTD/sodipodi-0.dtd"
   xmlns:inkscape="http://www.inkscape.org/namespaces/inkscape"
   width="6in"
   height="2.8in"
   viewBox="0 0 152.4 71.119999"
   version="1.1"
   id="svg8"
   inkscape:version="1.0.2 (e86c870879, 2021-01-15, custom)"
   sodipodi:docname="capstoneprojproj.svg">
  <defs
     id="defs2">
    <rect
       x="21.922619"
       y="108.47917"
       width="170.84525"
       height="77.485123"
       id="rect867" />
    <rect
       x="21.922619"
       y="108.47917"
       width="170.84525"
       height="77.485123"
       id="rect867-0" />
    <rect
       x="21.922619"
       y="108.47917"
       width="170.84525"
       height="77.485123"
       id="rect880" />
    <rect
       x="21.922619"
       y="108.47917"
       width="170.84525"
       height="77.485123"
       id="rect867-0-7" />
    <rect
       x="21.922619"
       y="108.47917"
       width="170.84525"
       height="77.485123"
       id="rect1024" />
    <rect
       x="21.922619"
       y="108.47917"
       width="170.84525"
       height="77.485123"
       id="rect867-3" />
    <rect
       x="21.922619"
       y="108.47917"
       width="170.84525"
       height="77.485123"
       id="rect1027" />
    <clipPath
       clipPathUnits="userSpaceOnUse"
       id="clipPath1487">
      <path
         id="path1489"
         style="fill:#ff0000;fill-opacity:1;fill-rule:nonzero;stroke:none;stroke-width:0.293966"
         d="M 55.620738,58.456896 V 92.31788 c 0.0161,0.01159 0.03224,0.02315 0.04848,0.03462 0.0308,0.02453 0.05993,0.05041 0.0925,0.07338 0.107455,0.0758 0.213065,0.154713 0.33299,0.217041 0.01463,0.0076 0.05957,0.0168 0.05167,0.0041 -0.01189,-0.019 -0.0952,-0.03093 -0.06889,-0.03101 0.04316,-9e-5 0.08254,0.02066 0.123753,0.03101 0.03605,0.07929 0.151728,0.03533 0.214339,0.07183 0.06456,0.03763 0.136089,0.06997 0.202855,0.106456 -0.0074,-2.65e-4 -0.04228,1.21e-4 -0.102703,0.0021 0.02499,0.0038 0.04942,0.0076 0.07272,0.01291 0.0162,-0.0057 0.02724,-0.0092 0.03509,-0.01138 0.02541,0.01405 0.05017,0.02866 0.07336,0.04444 0.03984,0.01707 0.07366,0.038 0.09824,0.06408 0.02796,0.02965 0.05371,0.06111 0.08102,0.09147 0.02668,0.0024 0.05993,0.0066 0.06251,0.0057 -0.02675,0.0024 -0.04855,0.02371 0.139705,0.122473 0.0092,0.0048 -0.01738,-0.01968 -0.0096,-0.02582 0.0084,-0.0066 0.02433,0.0016 0.03445,0.0062 0.09584,0.04407 0.114013,0.05458 0.158204,0.07545 0.127466,0.01828 0.251729,0.03904 0.372539,0.06873 0.160532,-0.05032 0.348928,-0.08217 0.571569,-0.08217 0.260633,0 0.262197,-0.0078 0.574761,0.04393 0.07168,0.01185 0.140387,0.03362 0.21051,0.05064 0.01868,0.0026 0.02345,0.0021 0.03509,0.0036 0.0036,5.3e-4 -0.0074,0.0028 -0.01084,0.0021 -0.0081,-0.0019 -0.0162,-0.0037 -0.02423,-0.0057 -0.05945,-0.0083 -0.147236,-0.02138 -0.111636,-0.01188 0.133597,0.03566 0.272093,0.05722 0.408264,0.08578 0.04298,0.01939 0.08478,0.04125 0.129495,0.05788 0.0072,0.0026 0.01532,-0.0026 0.02296,-0.0011 0.149908,0.03107 0.332722,0.137838 0.426763,0.193786 0.06636,0.03948 0.109699,0.10173 0.177977,0.139012 0.01711,0.0093 -0.0084,-0.03274 -0.01277,-0.04909 0.250981,0.07565 0.495939,0.163602 0.734875,0.261482 0.04769,0.01953 0.103359,0.03022 0.141615,0.06046 0.03185,0.02516 -0.08072,-0.02997 -0.121202,-0.04496 -0.160509,0.07426 -0.299224,0.133723 -0.421661,0.185002 0.865166,0.402503 1.17095,0.522402 0.954955,0.665594 0.07413,0.06818 0.02466,0.165523 -0.262821,0.320392 -0.02201,0.01185 -0.04473,0.04802 -0.06634,0.03566 -0.07542,-0.04311 -0.129619,-0.07129 -0.197753,-0.109038 -0.03515,0.01545 -0.08112,0.03748 -0.118651,0.05426 0.346266,0.671552 -0.541753,1.205855 -1.53163,0.517798 -0.13149,-0.0914 -0.258702,-0.186958 -0.368711,-0.29559 -0.05166,-0.01408 -0.103866,-0.02763 -0.152462,-0.04754 -0.08788,-0.03602 -0.157332,-0.09597 -0.232201,-0.147796 -0.01336,-0.0092 -0.03949,-0.02286 -0.05614,-0.03514 -0.01244,-0.0033 -0.02525,-0.0058 -0.03764,-0.0093 -0.02567,-0.0072 -0.04859,-0.01945 -0.07208,-0.03049 -0.07473,0.01442 -0.182771,0.01318 -0.340645,-0.01188 -0.02521,-0.004 -0.05255,-0.0041 -0.0791,-0.0057 -0.201539,0.04128 -0.448355,0.04704 -0.7387,0 -0.216811,-0.03512 -0.25669,-0.03576 -0.486092,-0.10387 -0.04944,-0.01468 -0.108408,-0.02138 -0.152459,-0.04341 -0.08305,-0.01125 -0.165902,-0.02373 -0.248786,-0.03566 -0.12064,-0.08669 -0.224937,-0.190703 -0.361695,-0.259934 -0.08176,-0.04139 0.135357,0.111847 0.192648,0.174667 0.0096,0.01053 -0.0569,-0.02254 -0.04529,-0.01344 0.02107,0.01667 0.05099,0.02371 0.07527,0.03721 0.0026,0.0016 0.0059,0.0074 0.0033,0.0067 -0.141067,-0.0334 -0.281268,-0.06915 -0.421658,-0.104386 V 118.78506 H 118.27839 V 58.456896 Z m 5.172831,36.626189 c 0.254708,-0.111908 0.433482,-0.185073 0.526915,-0.247012 -0.13863,-0.127495 -0.733225,-0.147207 -1.154622,-0.215493 0.01225,0.0097 0.03237,0.02487 0.03381,0.02585 0.148412,0.09988 0.261566,0.202655 0.347661,0.304374 0.08777,0.04704 0.14269,0.07492 0.246235,0.132292 z m -4.627416,-2.176611 c 0.16922,0.0333 0.213966,0.03855 0.320232,0.05736 -0.0016,-0.01058 -0.0047,-0.02193 -0.0033,-0.03101 -0.07961,-0.0058 -0.139244,-0.0088 -0.317041,-0.02635 z m 3.725408,1.647444 c 0.04482,0.03527 0.08723,0.07222 0.128221,0.110072 0.01509,0.0086 0.0293,0.01662 0.04593,0.02582 0.002,-0.02938 0.0033,-0.05865 0.0038,-0.08785 -0.06823,-0.0136 -0.127124,-0.02981 -0.177977,-0.04806 z m -1.346634,0.05529 c -0.03224,-0.0019 -0.07475,0.191082 -0.02296,0.24443 0.02094,0.02156 0.04961,0.04202 0.07464,0.06305 0.01669,-0.0019 0.02747,-0.0034 0.04274,-0.0052 -0.01891,-0.09801 -0.04217,-0.195185 -0.08165,-0.288869 -0.0039,-0.0092 -0.0082,-0.01318 -0.01277,-0.01344 z m 0.09696,0.312645 c -0.0057,7.94e-4 -0.02675,0.0035 -0.03317,0.0047 0.01434,0.01175 0.02613,0.02413 0.04146,0.03566 -0.0023,-0.01355 -0.0057,-0.02681 -0.0083,-0.04031 z m -2.123612,0.01601 c 0.01787,0.007 0.03908,0.01749 0.05167,0.02016 0.03807,0.0081 0.156466,0.01098 0.118014,0.0041 -0.05611,-0.0099 -0.113157,-0.01614 -0.169687,-0.02429 z" />
    </clipPath>
    <clipPath
       clipPathUnits="userSpaceOnUse"
       id="clipPath1499">
      <path
         id="path1501"
         style="fill:#ff0000;fill-opacity:1;fill-rule:nonzero;stroke:none;stroke-width:0.293966"
         d="m 118.27839,58.456896 v 60.328094 h 62.65766 V 94.720833 c -0.0273,0.01061 -0.0432,0.01831 -0.1027,0.03772 -0.077,0.02511 -0.15769,0.04214 -0.2373,0.06149 -0.002,0.0016 -0.005,0.0047 -0.007,0.0062 -0.0302,0.02445 -0.0713,0.03486 -0.11483,0.04082 -0.0141,0.0089 -0.0284,0.01765 -0.0427,0.02635 l -6.5e-4,-5.29e-4 c -0.72321,0.439399 -1.28277,0.08481 -1.05128,-0.374652 -0.0817,-0.0075 -0.11388,-0.06709 -0.12376,-0.150379 -0.0382,0.0117 -0.0759,0.02265 -0.11418,0.03462 -0.33669,0.104651 -0.63948,0.246423 -0.97537,0.302305 -0.15093,0.04533 -0.29145,0.08257 -0.36233,0.08268 -0.16323,2.64e-4 -0.39632,-0.03044 -0.45101,-0.155028 -0.006,-0.01476 -0.1259,-0.679185 0.15948,-0.749826 0.10298,-0.02548 0.2089,-0.04128 0.31449,-0.05891 0.005,-0.0047 0.0138,-0.0091 0.0223,-0.01344 0.009,-0.0046 0.0163,-0.0087 0.0274,-0.01291 0.0318,-0.01212 0.0693,-0.02326 0.0925,-0.03307 0.11153,-0.04711 0.23187,-0.08 0.34766,-0.119891 0.38765,-0.128352 0.77311,-0.258307 1.15334,-0.400492 0.093,-0.03477 0.18244,-0.0755 0.27749,-0.106455 0.22824,-0.07435 0.34464,-0.103068 0.48546,-0.134358 0.12096,-0.0458 0.23807,-0.09666 0.33809,-0.171048 0.12844,-0.09198 0.24682,-0.192061 0.36488,-0.292489 V 58.456896 Z m 60.9774,35.910988 c 0.0103,-0.0031 0.0204,-0.0062 0.0306,-0.0093 -0.0114,-0.0033 -0.0231,-0.0063 -0.0344,-0.0098 3.3e-4,0.0072 0.003,0.01228 0.004,0.01913 z m 0.0306,-0.0093 c 0.0547,0.01601 0.1096,0.03158 0.16585,0.04496 0.009,-0.01185 0.0159,-0.02323 0.0262,-0.03514 0.002,-0.02257 0.003,-0.04573 0.004,-0.06925 -0.0654,0.01963 -0.13077,0.03939 -0.19648,0.05943 z m 0.16585,0.04496 c -0.0301,0.03877 -0.0537,0.07698 -0.0727,0.114723 0.0158,0.0013 0.0323,0.0019 0.0517,-5.29e-4 0.008,-0.0011 0.0151,-0.0037 0.023,-0.0052 0.01,-0.03198 0.0158,-0.06707 0.0204,-0.10387 -0.007,-0.0019 -0.0149,-0.0034 -0.0223,-0.0052 z" />
    </clipPath>
    <rect
       x="21.922619"
       y="108.47917"
       width="170.84525"
       height="77.485123"
       id="rect867-0-7-1" />
    <rect
       x="21.922619"
       y="108.47917"
       width="170.84525"
       height="77.485123"
       id="rect1569" />
    <rect
       x="21.922619"
       y="108.47917"
       width="170.84525"
       height="77.485123"
       id="rect867-3-7" />
    <rect
       x="21.922619"
       y="108.47917"
       width="170.84525"
       height="77.485123"
       id="rect1572" />
  </defs>
  <sodipodi:namedview
     id="base"
     pagecolor="#ffffff"
     bordercolor="#666666"
     borderopacity="1.0"
     inkscape:pageopacity="0.0"
     inkscape:pageshadow="2"
     inkscape:zoom="0.70710678"
     inkscape:cx="141.10052"
     inkscape:cy="385.93872"
     inkscape:document-units="mm"
     inkscape:current-layer="g1646"
     inkscape:document-rotation="0"
     showgrid="false"
     showguides="false"
     inkscape:window-width="1920"
     inkscape:window-height="1017"
     inkscape:window-x="-8"
     inkscape:window-y="-8"
     inkscape:window-maximized="1"
     units="in"
     width="6.25in" />
  <metadata
     id="metadata5">
    <rdf:RDF>
      <cc:Work
         rdf:about="">
        <dc:format>image/svg+xml</dc:format>
        <dc:type
           rdf:resource="http://purl.org/dc/dcmitype/StillImage" />
        <dc:title></dc:title>
      </cc:Work>
    </rdf:RDF>
  </metadata>
  <g
     inkscape:label="Layer 1"
     inkscape:groupmode="layer"
     id="layer1">
    <path
       style="fill:#000000;stroke-width:0.352778"
       id="path1351"
       d="" />
    <g
       id="g1646"
       style="stroke-width:1;stroke-miterlimit:4;stroke-dasharray:none"
       inkscape:export-xdpi="200.21001"
       inkscape:export-ydpi="200.21001">
      <g
         aria-label="PROJECT"
         transform="matrix(1.3844865,0,0,1.3807924,41.785634,-3.6738688)"
         id="text865-0-5"
         style="font-style:normal;font-weight:normal;font-size:10.5833px;line-height:1.25;font-family:sans-serif;white-space:pre;shape-inside:url(#rect867-0-7-1);fill:#2a2928;fill-opacity:1;stroke:none;stroke-width:0.723255;stroke-miterlimit:4;stroke-dasharray:none" />
      <g
         id="g930"
         inkscape:export-xdpi="200.21001"
         inkscape:export-ydpi="200.21001"
         transform="translate(-31.056718,-101.77624)">
        <path
           style="fill:#666666;fill-opacity:1;stroke-width:1;stroke-miterlimit:4;stroke-dasharray:none"
           d="m 84.123147,119.61403 c 0,-0.3856 1.27162,-3.01924 2.16148,-4.47665 1.22233,-2.0019 3.73625,-4.72032 5.59522,-6.05037 1.362123,-0.97455 3.811793,-2.33108 4.209563,-2.33108 0.1198,0 0.36485,0.38655 0.58776,0.92715 0.21026,0.50993 0.99034,2.24979 1.7335,3.86634 0.74317,1.61655 1.35122,2.99654 1.35122,3.06664 0,0.0701 -0.2315,0.20861 -0.51444,0.30779 -1.70719,0.59847 -4.116,2.39145 -5.28185,3.9315 l -0.71986,0.95091 -4.561293,0.002 c -3.69201,0.002 -4.5613,-0.0354 -4.5613,-0.19421 z m 30.111413,-1.35306 c -1.44597,-1.60264 -2.73476,-2.55618 -4.32303,-3.19849 l -0.80909,-0.3272 0.72677,-1.57908 c 0.39972,-0.86849 1.21031,-2.66464 1.8013,-3.99142 1.22481,-2.74972 0.94729,-2.58151 2.74231,-1.6622 3.16971,1.62333 6.22728,4.51153 8.28593,7.82693 0.575,0.92603 1.81618,3.50546 1.99544,4.14694 l 0.0933,0.33378 -4.57054,-0.0144 -4.57054,-0.0144 -1.37182,-1.52046 z m -13.50198,-4.19908 c -0.83305,-1.80391 -3.98869,-8.92406 -3.98869,-8.99983 0,-0.12417 1.74509,-0.67368 2.94941,-0.92873 1.75389,-0.37144 7.80838,-0.3795 9.60271,-0.0128 1.31645,0.26905 2.48314,0.61954 2.80018,0.84121 0.24778,0.17323 0.15222,0.41478 -2.39432,6.05235 l -1.96304,4.34578 h -3.20339 -3.20341 z"
           id="path863-9" />
        <path
           style="fill:#543526;fill-opacity:1;stroke-width:1;stroke-miterlimit:4;stroke-dasharray:none"
           d="m 74.967027,120.20631 c -0.19079,-0.0814 -0.24693,-0.14795 -0.34037,-0.40351 -0.0457,-0.12514 -0.10212,-0.22753 -0.12527,-0.22753 -0.0232,0 -0.0421,-0.10277 -0.0421,-0.22838 0,-0.27867 -0.12397,-0.57787 -0.2774,-0.66957 -0.0627,-0.0374 -0.15774,-0.15403 -0.21126,-0.25905 -0.064,-0.12564 -0.10842,-0.16915 -0.12979,-0.12722 -0.0444,0.0871 -0.17623,-0.14508 -0.17623,-0.31025 0,-0.0769 -0.0186,-0.11116 -0.0483,-0.0889 -0.0266,0.0199 -0.041,0.12967 -0.0319,0.24408 0.009,0.11434 0.004,0.20789 -0.0113,0.20789 -0.083,0 -0.39779,-0.34324 -0.51995,-0.56689 -0.14423,-0.26406 -0.31563,-0.84413 -0.31563,-1.06819 0,-0.18508 -0.0718,-0.38025 -0.15394,-0.41847 -0.0764,-0.0356 -0.30468,0.0834 -0.35698,0.18597 -0.017,0.0333 -0.0557,0.23399 -0.0861,0.44593 -0.0304,0.21195 -0.11921,0.56228 -0.19748,0.7785 -0.25286,0.69867 -0.2537,1.27895 -0.002,1.61269 0.16739,0.22224 0.2029,0.34935 0.12812,0.45861 -0.0471,0.0688 -0.12217,0.0792 -0.40261,0.0559 -0.39284,-0.0326 -0.47396,-0.0889 -0.47396,-0.32882 0,-0.0936 -0.023,-0.19805 -0.0512,-0.23217 -0.0388,-0.0471 -0.0323,-0.15944 0.027,-0.46468 0.0615,-0.31653 0.0688,-0.45724 0.0343,-0.65804 l -0.0439,-0.25542 -0.005,0.22754 c -0.003,0.12515 -0.0231,0.22754 -0.045,0.22754 -0.0219,0 -0.0762,-0.10671 -0.12067,-0.23714 -0.058,-0.17 -0.0956,-0.22235 -0.13272,-0.18494 -0.0379,0.0381 -0.0659,-0.0245 -0.10367,-0.23133 -0.10916,-0.59733 -0.10623,-0.84708 0.0154,-1.31405 0.13368,-0.51317 0.11999,-0.7437 -0.0487,-0.82151 -0.0598,-0.0276 -0.31031,-0.0463 -0.55669,-0.0416 -0.64886,0.0124 -1.03061,-0.16639 -1.9049,-0.89173 -0.21853,-0.18131 -0.42209,-0.31944 -0.45234,-0.30696 -0.0302,0.0124 -0.0876,0.15923 -0.12735,0.32613 -0.0398,0.16691 -0.18209,0.60461 -0.31624,0.97269 -0.33275,0.913 -0.33276,0.91308 -0.18654,1.62263 0.17859,0.86666 0.29116,1.1923 0.49097,1.42027 0.0946,0.1079 0.17197,0.21778 0.17201,0.24417 4e-5,0.0264 0.0919,0.16709 0.20423,0.31267 0.26329,0.34135 0.22432,0.39978 -0.29916,0.44858 -0.35927,0.0335 -0.38384,0.029 -0.4315,-0.079 -0.0278,-0.063 -0.0901,-0.11453 -0.13838,-0.11453 -0.056,0 -0.10347,-0.0535 -0.13092,-0.14722 -0.0237,-0.081 -0.0624,-0.18807 -0.0861,-0.23798 -0.0237,-0.0499 -0.0918,-0.35107 -0.15146,-0.66924 -0.1571,-0.83775 -0.47157,-1.75802 -0.72294,-2.1156 -0.0422,-0.06 -0.0549,-0.14775 -0.037,-0.25431 0.015,-0.0895 0.0395,-0.23501 0.0544,-0.32335 0.0149,-0.0883 0.013,-0.16061 -0.004,-0.16061 -0.0804,0 -0.27851,0.18736 -0.35925,0.3397 -0.0493,0.0929 -0.1618,0.30566 -0.25012,0.47279 -0.16947,0.3207 -0.25306,0.676 -0.33789,1.43613 -0.0501,0.44928 -0.0489,0.46214 0.0984,1.01019 0.1111,0.4135 0.18709,0.60219 0.29792,0.73963 0.12153,0.15074 0.13702,0.19353 0.0846,0.23376 -0.0353,0.0271 -0.0768,0.0496 -0.0922,0.05 -0.0154,4e-4 -0.0389,0.0516 -0.0523,0.11353 -0.0228,0.10548 -0.0485,0.11148 -0.4015,0.0937 -0.33882,-0.0171 -0.38915,-0.0335 -0.49466,-0.16149 -0.0885,-0.10731 -0.12306,-0.21301 -0.14011,-0.42831 -0.0124,-0.15722 -0.0478,-0.30993 -0.0786,-0.33938 -0.0451,-0.0431 -0.044,-0.12122 0.005,-0.40154 0.0336,-0.19139 0.0822,-0.81781 0.108,-1.392 0.0258,-0.57421 0.0554,-1.09102 0.0659,-1.14849 0.0104,-0.0575 -5.9e-4,-0.21123 -0.0248,-0.3417 -0.0584,-0.31603 0.002,-0.52329 0.23001,-0.78854 0.21437,-0.24943 0.3907,-0.67146 0.39006,-0.93359 -3.2e-4,-0.10305 -0.0499,-0.41626 -0.11045,-0.696 -0.0736,-0.34045 -0.11809,-0.72103 -0.13444,-1.15107 -0.0143,-0.37688 -0.0618,-0.81938 -0.11492,-1.07043 -0.0887,-0.41959 -0.0904,-0.61851 -0.01,-1.16481 0.0276,-0.18723 0.0222,-0.20077 -0.0789,-0.20077 -0.1369,0 -0.26793,0.16794 -0.39739,0.50929 -0.1431,0.37733 -0.14104,1.08666 0.004,1.57871 0.0772,0.26096 0.10283,0.46021 0.10231,0.79658 -3.3e-4,0.26454 0.0246,0.52193 0.0609,0.62736 0.0778,0.22577 0.0755,0.43223 -0.007,0.6373 l -0.0647,0.16061 0.0222,-0.17923 c 0.0123,-0.0986 0.009,-0.24313 -0.008,-0.32123 l -0.0302,-0.142 -0.0332,0.16062 c -0.0499,0.24145 -0.19735,0.71954 -0.23566,0.76397 -0.036,0.0418 -0.006,-0.1937 0.0718,-0.56107 0.0699,-0.33042 0.0188,-0.55219 -0.18198,-0.78997 -0.21946,-0.25987 -0.25187,-0.43144 -0.14953,-0.79164 0.0646,-0.22738 0.08,-0.45463 0.0808,-1.19114 10e-4,-0.82839 0.01,-0.92939 0.096,-1.1243 0.12596,-0.28387 0.24892,-0.41396 0.56719,-0.60014 0.14569,-0.0852 0.35429,-0.21827 0.46357,-0.29565 0.10927,-0.0774 0.35922,-0.19005 0.55546,-0.25037 0.19624,-0.0603 0.55385,-0.21252 0.79469,-0.33824 l 0.43789,-0.22856 0.90506,-0.004 c 0.59231,-0.003 0.95846,-0.0265 1.05958,-0.0694 0.20109,-0.0853 1.79871,-0.469 2.14124,-0.5143 0.26898,-0.0355 1.47536,0.10684 2.31784,0.27362 0.23067,0.0457 0.75715,0.10019 1.16996,0.12117 0.71966,0.0366 0.76241,0.0451 1.03948,0.20648 0.55777,0.32492 0.99955,0.8599 1.27947,1.54943 0.16893,0.41613 0.18901,0.49688 0.35252,1.41773 0.22095,1.24425 0.42291,1.82592 0.80439,2.31664 0.21045,0.2707 0.25797,0.30478 0.49757,0.3568 0.31811,0.0691 0.34986,0.0891 0.28679,0.18131 -0.037,0.0541 -0.0289,0.0786 0.0341,0.10287 0.0455,0.0175 0.14826,0.10953 0.22836,0.20451 0.14249,0.16893 0.14348,0.17328 0.0462,0.20114 -0.0947,0.0271 -0.0886,0.045 0.12716,0.37092 0.21615,0.32663 0.2462,0.4163 0.22875,0.68266 -0.004,0.0642 0.0221,0.22308 0.0584,0.35295 0.0692,0.24703 0.0675,0.44764 -0.004,0.43007 -0.0238,-0.006 -0.0338,0.10937 -0.0233,0.26769 0.0135,0.20444 -0.007,0.34882 -0.0771,0.54569 -0.0525,0.14723 -0.10685,0.38335 -0.12071,0.5247 -0.0219,0.22304 -0.0375,0.2549 -0.11812,0.24093 -0.0672,-0.0117 -0.11514,0.0339 -0.17332,0.16482 -0.0442,0.0995 -0.17738,0.33434 -0.2959,0.52187 -0.19161,0.30316 -0.30704,0.60763 -0.30778,0.81182 -1.3e-4,0.038 -0.04,0.1635 -0.0885,0.27892 -0.11347,0.26974 -0.34904,0.37344 -0.63649,0.28021 -0.10305,-0.0335 -0.23015,-0.0472 -0.28245,-0.0307 -0.18198,0.0577 -0.30945,-0.026 -0.40105,-0.26341 -0.0482,-0.12489 -0.18702,-0.35381 -0.30851,-0.50869 -0.19495,-0.24853 -0.22607,-0.27054 -0.26493,-0.18738 -0.0413,0.0885 -0.0481,0.0877 -0.11141,-0.013 -0.037,-0.0589 -0.068,-0.19282 -0.0688,-0.29762 -0.001,-0.10479 -0.0282,-0.23508 -0.0611,-0.28952 -0.0563,-0.0933 -0.0614,-0.0908 -0.0891,0.0433 -0.0318,0.15352 -0.11607,0.19591 -0.11607,0.0584 0,-0.0585 -0.0258,-0.074 -0.085,-0.0512 -0.0644,0.0247 -0.0885,0.004 -0.0993,-0.0859 -0.008,-0.0652 -0.0422,-0.12973 -0.0763,-0.14335 -0.0446,-0.0178 -0.055,0.007 -0.0372,0.0895 0.0345,0.16013 -0.0717,0.14738 -0.18137,-0.0218 -0.0486,-0.0748 -0.10845,-0.25037 -0.13317,-0.39013 -0.0724,-0.40922 -0.12874,-0.54197 -0.25873,-0.60917 -0.0673,-0.0348 -0.15608,-0.0974 -0.19738,-0.13911 -0.07,-0.0708 -0.0741,-0.0374 -0.0604,0.49712 0.014,0.5472 0.0229,0.59305 0.19685,1.01878 0.10921,0.26726 0.26711,0.54939 0.39426,0.70447 0.21697,0.26461 0.36114,0.50605 0.36114,0.60479 0,0.0305 -0.0475,0.0554 -0.10565,0.0554 -0.0581,0 -0.11708,0.0361 -0.13106,0.0803 -0.0297,0.0941 -0.28831,0.10213 -0.49175,0.0154 z m 3.47327,-4.14612 c 0.10924,-0.11988 0.10518,-0.41714 -0.008,-0.55385 -0.10725,-0.13006 -0.15943,-0.13479 -0.21274,-0.0192 -0.10307,0.22333 -0.19702,-0.18085 -0.0955,-0.41086 0.0247,-0.056 0.13472,-0.18497 0.24444,-0.28657 0.10972,-0.1016 0.18387,-0.19584 0.16477,-0.20943 -0.0552,-0.0392 -0.42296,0.0911 -0.58912,0.20877 -0.39753,0.28154 -0.46715,0.86709 -0.14601,1.228 0.14454,0.16243 0.51062,0.18708 0.64172,0.0432 z"
           id="path923-6" />
        <path
           style="fill:#543526;fill-opacity:1;stroke-width:1;stroke-miterlimit:4;stroke-dasharray:none"
           d="m 134.55755,120.31375 c 0.19079,-0.0814 0.24694,-0.14794 0.34037,-0.4035 0.0457,-0.12514 0.10212,-0.22754 0.12527,-0.22754 0.0232,0 0.0421,-0.10277 0.0421,-0.22837 0,-0.27867 0.12397,-0.57788 0.2774,-0.66958 0.0627,-0.0374 0.15774,-0.15402 0.21126,-0.25905 0.064,-0.12564 0.10842,-0.16915 0.12979,-0.12722 0.0444,0.0871 0.17624,-0.14508 0.17624,-0.31025 0,-0.0769 0.0186,-0.11116 0.0483,-0.0889 0.0266,0.0199 0.041,0.12968 0.0319,0.24408 -0.009,0.11434 -0.004,0.20789 0.0113,0.20789 0.083,0 0.39779,-0.34324 0.51995,-0.56689 0.14423,-0.26405 0.31563,-0.84413 0.31563,-1.06819 0,-0.18508 0.0718,-0.38025 0.15394,-0.41847 0.0764,-0.0355 0.30468,0.0834 0.35698,0.18597 0.017,0.0333 0.0557,0.23399 0.0861,0.44593 0.0304,0.21195 0.11921,0.56228 0.19747,0.77851 0.25287,0.69866 0.25371,1.27894 0.002,1.61268 -0.16738,0.22224 -0.2029,0.34935 -0.12812,0.45862 0.0471,0.0688 0.12217,0.0792 0.40261,0.0559 0.39285,-0.0326 0.47396,-0.0889 0.47396,-0.32883 0,-0.0936 0.023,-0.19804 0.0512,-0.23217 0.0388,-0.047 0.0323,-0.15944 -0.027,-0.46468 -0.0615,-0.31652 -0.0688,-0.45723 -0.0343,-0.65803 l 0.0439,-0.25543 0.005,0.22754 c 0.003,0.12515 0.0231,0.22754 0.045,0.22754 0.0219,0 0.0762,-0.10671 0.12067,-0.23714 0.058,-0.16999 0.0956,-0.22235 0.13273,-0.18494 0.0379,0.0381 0.0659,-0.0245 0.10366,-0.23133 0.10917,-0.59733 0.10623,-0.84708 -0.0154,-1.31405 -0.13368,-0.51317 -0.11999,-0.74369 0.0488,-0.82151 0.0598,-0.0276 0.31031,-0.0463 0.55669,-0.0416 0.64886,0.0124 1.03061,-0.16638 1.9049,-0.89172 0.21854,-0.18131 0.42209,-0.31944 0.45235,-0.30697 0.0302,0.0124 0.0876,0.15923 0.12734,0.32613 0.0398,0.16691 0.1821,0.60462 0.31624,0.97269 0.33275,0.91301 0.33277,0.91308 0.18654,1.62264 -0.17859,0.86665 -0.29116,1.19229 -0.49097,1.42027 -0.0946,0.10789 -0.17197,0.21777 -0.17201,0.24417 -4e-5,0.0264 -0.0919,0.16708 -0.20423,0.31266 -0.26329,0.34135 -0.22432,0.39978 0.29916,0.44858 0.35928,0.0335 0.38384,0.029 0.4315,-0.079 0.0278,-0.063 0.0901,-0.11452 0.13839,-0.11452 0.056,0 0.10347,-0.0535 0.13091,-0.14723 0.0237,-0.081 0.0624,-0.18807 0.0861,-0.23798 0.0237,-0.0499 0.0918,-0.35107 0.15146,-0.66923 0.1571,-0.83776 0.47157,-1.75803 0.72295,-2.11561 0.0422,-0.06 0.0549,-0.14775 0.037,-0.25431 -0.015,-0.0895 -0.0395,-0.235 -0.0544,-0.32334 -0.0149,-0.0883 -0.013,-0.16061 0.004,-0.16061 0.0804,0 0.2785,0.18736 0.35925,0.33969 0.0493,0.0929 0.16179,0.30566 0.25011,0.4728 0.16947,0.3207 0.25307,0.67599 0.33789,1.43612 0.0501,0.44928 0.0489,0.46214 -0.0984,1.01019 -0.1111,0.4135 -0.18709,0.60219 -0.29792,0.73963 -0.12153,0.15074 -0.13702,0.19353 -0.0846,0.23376 0.0353,0.0271 0.0768,0.0496 0.0922,0.05 0.0154,4.1e-4 0.0389,0.0516 0.0523,0.11353 0.0228,0.10548 0.0485,0.11149 0.4015,0.0937 0.33882,-0.0171 0.38916,-0.0335 0.49467,-0.16149 0.0885,-0.10731 0.12305,-0.21301 0.1401,-0.42831 0.0124,-0.15721 0.0478,-0.30993 0.0786,-0.33938 0.045,-0.0431 0.044,-0.12122 -0.005,-0.40154 -0.0336,-0.19139 -0.0823,-0.81781 -0.108,-1.392 -0.0258,-0.5742 -0.0554,-1.09102 -0.0659,-1.14849 -0.0104,-0.0575 5.9e-4,-0.21123 0.0248,-0.3417 0.0584,-0.31603 -0.002,-0.52329 -0.23001,-0.78854 -0.21437,-0.24942 -0.3907,-0.67146 -0.39006,-0.93358 3.3e-4,-0.10306 0.0499,-0.41627 0.11046,-0.69601 0.0736,-0.34045 0.11808,-0.72103 0.13443,-1.15107 0.0143,-0.37687 0.0618,-0.81938 0.11492,-1.07042 0.0887,-0.4196 0.0904,-0.61851 0.01,-1.16481 -0.0276,-0.18724 -0.0222,-0.20077 0.0789,-0.20077 0.1369,0 0.26794,0.16794 0.39739,0.50928 0.14311,0.37734 0.14105,1.08666 -0.004,1.57872 -0.0772,0.26095 -0.10282,0.4602 -0.1023,0.79658 3.3e-4,0.26453 -0.0246,0.52192 -0.0609,0.62736 -0.0778,0.22576 -0.0755,0.43222 0.007,0.63729 l 0.0647,0.16061 -0.0222,-0.17923 c -0.0123,-0.0986 -0.009,-0.24313 0.008,-0.32123 l 0.0302,-0.142 0.0332,0.16062 c 0.0499,0.24145 0.19734,0.71954 0.23566,0.76398 0.036,0.0418 0.006,-0.1937 -0.0718,-0.56107 -0.0699,-0.33043 -0.0188,-0.5522 0.18198,-0.78998 0.21945,-0.25987 0.25186,-0.43144 0.14953,-0.79164 -0.0646,-0.22738 -0.08,-0.45463 -0.0808,-1.19114 -0.001,-0.82839 -0.01,-0.92939 -0.096,-1.1243 -0.12597,-0.28387 -0.24893,-0.41395 -0.5672,-0.60014 -0.14569,-0.0852 -0.35429,-0.21826 -0.46356,-0.29565 -0.10928,-0.0774 -0.35923,-0.19005 -0.55547,-0.25037 -0.19624,-0.0603 -0.55385,-0.21252 -0.79469,-0.33824 l -0.43789,-0.22856 -0.90506,-0.004 c -0.59231,-0.003 -0.95846,-0.0265 -1.05958,-0.0694 -0.20109,-0.0853 -1.79871,-0.469 -2.14124,-0.51429 -0.26898,-0.0355 -1.47536,0.10683 -2.31783,0.27361 -0.23068,0.0457 -0.75716,0.10019 -1.16997,0.12117 -0.71966,0.0366 -0.76241,0.0451 -1.03948,0.20648 -0.55777,0.32492 -0.99955,0.85991 -1.27946,1.54943 -0.16894,0.41613 -0.18901,0.49688 -0.35253,1.41774 -0.22095,1.24425 -0.42291,1.82591 -0.80439,2.31663 -0.21045,0.2707 -0.25797,0.30478 -0.49757,0.3568 -0.3181,0.0691 -0.34986,0.0891 -0.28679,0.18131 0.037,0.0541 0.0289,0.0786 -0.0341,0.10287 -0.0455,0.0175 -0.14825,0.10954 -0.22835,0.20451 -0.1425,0.16894 -0.14349,0.17328 -0.0462,0.20114 0.0947,0.0271 0.0886,0.045 -0.12717,0.37093 -0.21615,0.32662 -0.2462,0.41629 -0.22875,0.68265 0.004,0.0643 -0.0221,0.22309 -0.0584,0.35295 -0.0692,0.24703 -0.0675,0.44764 0.004,0.43007 0.0238,-0.006 0.0338,0.10937 0.0233,0.26769 -0.0135,0.20444 0.007,0.34882 0.0771,0.54569 0.0525,0.14723 0.10685,0.38335 0.12071,0.5247 0.0219,0.22304 0.0375,0.2549 0.11813,0.24093 0.0672,-0.0117 0.11514,0.0339 0.17332,0.16482 0.0442,0.0995 0.17737,0.33434 0.29589,0.52187 0.19161,0.30316 0.30705,0.60763 0.30778,0.81182 1.3e-4,0.0379 0.04,0.1635 0.0885,0.27892 0.11347,0.26975 0.34904,0.37344 0.6365,0.28021 0.10305,-0.0335 0.23014,-0.0472 0.28244,-0.0307 0.18199,0.0577 0.30946,-0.026 0.40105,-0.2634 0.0482,-0.1249 0.18702,-0.35382 0.30852,-0.50869 0.19495,-0.24854 0.22606,-0.27054 0.26492,-0.18739 0.0413,0.0885 0.0481,0.0877 0.11141,-0.013 0.037,-0.0589 0.068,-0.19282 0.0688,-0.29761 10e-4,-0.1048 0.0282,-0.23509 0.0611,-0.28953 0.0563,-0.0933 0.0614,-0.0908 0.0891,0.0433 0.0318,0.15352 0.11607,0.19591 0.11607,0.0584 0,-0.0585 0.0258,-0.074 0.085,-0.0512 0.0644,0.0248 0.0885,0.004 0.0993,-0.0859 0.008,-0.0652 0.0422,-0.12973 0.0762,-0.14335 0.0446,-0.0178 0.055,0.007 0.0372,0.0895 -0.0345,0.16013 0.0716,0.14739 0.18137,-0.0218 0.0486,-0.0748 0.10845,-0.25037 0.13317,-0.39013 0.0724,-0.40922 0.12874,-0.54196 0.25873,-0.60917 0.0673,-0.0348 0.15608,-0.0974 0.19738,-0.1391 0.07,-0.0708 0.0741,-0.0374 0.0604,0.49711 -0.014,0.5472 -0.0229,0.59305 -0.19685,1.01879 -0.10921,0.26725 -0.26711,0.54938 -0.39426,0.70446 -0.21696,0.26462 -0.36113,0.50605 -0.36113,0.60479 0,0.0305 0.0475,0.0554 0.10564,0.0554 0.0581,0 0.11708,0.0361 0.13106,0.0803 0.0297,0.0941 0.28832,0.10213 0.49176,0.0154 z m -3.47327,-4.14612 c -0.10923,-0.11987 -0.10518,-0.41713 0.008,-0.55385 0.10725,-0.13006 0.15943,-0.13478 0.21274,-0.0192 0.10307,0.22333 0.19702,-0.18085 0.0955,-0.41086 -0.0247,-0.056 -0.13471,-0.18497 -0.24444,-0.28657 -0.10971,-0.1016 -0.18387,-0.19583 -0.16476,-0.20943 0.0552,-0.0393 0.42295,0.0911 0.58912,0.20877 0.39752,0.28154 0.46714,0.86709 0.14601,1.22801 -0.14454,0.16243 -0.51063,0.18707 -0.64173,0.0432 z"
           id="path923-0-3" />
        <path
           d="m 22.552062,117.7347 0.779316,-0.26939 q 0.06735,-0.0241 0.115454,-0.0722 0.05292,-0.0529 0.05292,-0.15875 v -5.19544 q 0,-0.0962 -0.04811,-0.14432 -0.04811,-0.0481 -0.120265,-0.0721 l -0.779316,-0.27902 v -0.38966 h 2.886355 q 0.543597,0 1.015034,0.11065 0.476249,0.10583 0.827422,0.33674 0.355984,0.23091 0.558029,0.59651 0.202044,0.3608 0.202044,0.86591 0,0.53397 -0.177991,0.96212 -0.173182,0.42333 -0.490681,0.72158 -0.312688,0.29826 -0.750452,0.45701 -0.432953,0.15875 -0.952497,0.15875 -0.120265,0 -0.269393,-0.0241 -0.144318,-0.0289 -0.298257,-0.0722 -0.149128,-0.0481 -0.293446,-0.10583 -0.144317,-0.0625 -0.254961,-0.12989 v 2.20325 q 0,0.10583 0.05292,0.15875 0.05292,0.0481 0.125075,0.0722 l 0.81299,0.26939 v 0.39928 h -2.992188 z m 2.001206,-3.14612 q 0.08659,0.0241 0.202045,0.0433 0.120265,0.0144 0.250151,0.024 0.129886,0.01 0.264582,0.0144 0.134697,0.005 0.250151,0.005 0.307878,0 0.529165,-0.077 0.221287,-0.077 0.375226,-0.19724 0.153939,-0.12507 0.24534,-0.27901 0.09621,-0.15394 0.144318,-0.30788 0.05292,-0.15394 0.06735,-0.28864 0.01924,-0.1395 0.01924,-0.2309 0,-0.29345 -0.07697,-0.56284 -0.07216,-0.27421 -0.264583,-0.48106 -0.187613,-0.20686 -0.514733,-0.32712 -0.32712,-0.12508 -0.832232,-0.12508 h -0.659051 z"
           style="font-style:normal;font-variant:normal;font-weight:normal;font-stretch:normal;font-size:10.5833px;line-height:1.25;font-family:'Sitka Small';-inkscape-font-specification:'Sitka Small';white-space:pre;shape-inside:url(#rect867-0-7-1);fill:#2a2928;fill-opacity:1;stroke:none;stroke-width:0.723255;stroke-miterlimit:4;stroke-dasharray:none"
           id="path887"
           transform="matrix(1.3844865,0,0,1.3807924,41.785635,-3.6738687)" />
        <path
           d="m 29.156996,117.7347 0.779316,-0.26939 q 0.07697,-0.0241 0.120265,-0.0722 0.04811,-0.0529 0.04811,-0.15875 v -5.19544 q 0,-0.0962 -0.05292,-0.14432 -0.04811,-0.0481 -0.115454,-0.0721 l -0.779316,-0.27902 v -0.38966 h 2.93446 q 0.533976,0 0.933255,0.0722 0.399279,0.0722 0.683104,0.20205 0.288635,0.12507 0.471438,0.29825 0.187613,0.16837 0.293446,0.36561 0.110643,0.19723 0.149128,0.41371 0.0433,0.21167 0.0433,0.42333 0,0.42814 -0.149129,0.76007 -0.144318,0.33194 -0.375226,0.57247 -0.226098,0.23571 -0.505112,0.38484 -0.274204,0.14913 -0.533975,0.21167 l 1.755865,2.32832 q 0.01924,0.0289 0.05773,0.077 0.0433,0.0433 0.0914,0.0914 0.05292,0.0433 0.105833,0.0818 0.05292,0.0337 0.105833,0.0481 l 0.803369,0.25015 v 0.39928 H 34.80944 q -0.25015,0 -0.394468,-0.0289 -0.144318,-0.0289 -0.24534,-0.0962 -0.09621,-0.0722 -0.182803,-0.19243 -0.08659,-0.12026 -0.221287,-0.30788 l -1.674086,-2.3187 -0.933254,-0.19242 v 2.23692 q 0,0.10583 0.04811,0.15875 0.05292,0.0481 0.129886,0.0722 l 0.774505,0.26939 v 0.39928 H 29.157 Z m 2.001206,-3.31931 q 0.05292,0.01 0.16356,0.0192 0.110644,0.01 0.235719,0.0192 0.125075,0.01 0.24534,0.0144 0.120265,0.005 0.197234,0.005 0.394469,0 0.683104,-0.10583 0.288636,-0.11065 0.476249,-0.29345 0.192423,-0.18761 0.283824,-0.42814 0.09621,-0.24053 0.09621,-0.50511 0,-0.35118 -0.105833,-0.60614 -0.105833,-0.25496 -0.312688,-0.41852 -0.202045,-0.16356 -0.509923,-0.24053 -0.307878,-0.077 -0.711967,-0.077 H 31.1582 Z"
           style="font-style:normal;font-variant:normal;font-weight:normal;font-stretch:normal;font-size:10.5833px;line-height:1.25;font-family:'Sitka Small';-inkscape-font-specification:'Sitka Small';white-space:pre;shape-inside:url(#rect867-0-7-1);fill:#2a2928;fill-opacity:1;stroke:none;stroke-width:0.723255;stroke-miterlimit:4;stroke-dasharray:none"
           id="path889"
           transform="matrix(1.3844865,0,0,1.3807924,41.785635,-3.6738687)" />
        <path
           d="m 39.899012,118.29273 q -0.822611,0 -1.457609,-0.25015 -0.634998,-0.25015 -1.072762,-0.72159 -0.432953,-0.47625 -0.659051,-1.15454 -0.221287,-0.67829 -0.221287,-1.53458 0,-0.80337 0.230908,-1.47204 0.235719,-0.66867 0.673483,-1.14973 0.442574,-0.48587 1.077572,-0.75045 0.634998,-0.2694 1.438367,-0.2694 0.870717,0 1.510526,0.27421 0.644619,0.2742 1.06314,0.76007 0.423332,0.48587 0.625377,1.15454 0.206855,0.66867 0.206855,1.4528 0,0.46663 -0.08659,0.92363 -0.08659,0.4522 -0.264583,0.8611 -0.177992,0.40409 -0.457006,0.75045 -0.274204,0.34155 -0.65424,0.5917 -0.380037,0.25016 -0.865907,0.38966 -0.485869,0.14432 -1.087193,0.14432 z m 0.08659,-0.63019 q 0.538786,0 0.942875,-0.20685 0.408901,-0.20686 0.678294,-0.58208 0.274203,-0.37523 0.4089,-0.89958 0.139507,-0.52917 0.139507,-1.17379 0,-0.73602 -0.144318,-1.32291 -0.144317,-0.5917 -0.437764,-1.0006 -0.288635,-0.41371 -0.731209,-0.63019 -0.437764,-0.22129 -1.034277,-0.22129 -0.572461,0 -0.981361,0.22129 -0.4089,0.22129 -0.673483,0.60613 -0.259771,0.38485 -0.384847,0.90439 -0.120265,0.51474 -0.120265,1.10163 0,0.73121 0.139508,1.32291 0.144317,0.5917 0.432953,1.01023 0.288635,0.41852 0.726399,0.64462 0.442574,0.22609 1.039088,0.22609 z"
           style="font-style:normal;font-variant:normal;font-weight:normal;font-stretch:normal;font-size:10.5833px;line-height:1.25;font-family:'Sitka Small';-inkscape-font-specification:'Sitka Small';white-space:pre;shape-inside:url(#rect867-0-7-1);fill:#2a2928;fill-opacity:1;stroke:none;stroke-width:0.723255;stroke-miterlimit:4;stroke-dasharray:none"
           id="path891"
           transform="matrix(1.3844865,0,0,1.3807924,41.785635,-3.6738687)" />
        <path
           d="m 43.237551,119.0047 h 0.283824 q 0.105833,0.0385 0.245341,0.0818 0.134696,0.0481 0.283824,0.0866 0.149129,0.0433 0.298257,0.0722 0.153939,0.0289 0.283825,0.0289 0.355984,0 0.548407,-0.0866 0.197234,-0.0866 0.279014,-0.22129 0.05773,-0.0914 0.08659,-0.26458 0.03367,-0.16837 0.04811,-0.40409 0.01443,-0.23572 0.01443,-0.52916 0.0048,-0.29345 0.0048,-0.62538 v -5.10404 q 0,-0.0962 -0.0433,-0.14432 -0.0433,-0.0481 -0.125075,-0.0721 l -0.914013,-0.27902 v -0.38966 h 3.0884 v 0.38966 l -0.774505,0.27902 q -0.07216,0.0241 -0.120265,0.0721 -0.04811,0.0481 -0.04811,0.14432 v 5.0415 q 0,0.80337 -0.173181,1.38064 -0.173182,0.57727 -0.48587,0.9525 -0.312688,0.37522 -0.755263,0.55322 -0.442574,0.17799 -0.98136,0.17799 -0.0914,0 -0.230909,-0.0144 -0.134696,-0.01 -0.279014,-0.0289 -0.149128,-0.0144 -0.288635,-0.0385 -0.144318,-0.0241 -0.24534,-0.0481 z"
           style="font-style:normal;font-variant:normal;font-weight:normal;font-stretch:normal;font-size:10.5833px;line-height:1.25;font-family:'Sitka Small';-inkscape-font-specification:'Sitka Small';white-space:pre;shape-inside:url(#rect867-0-7-1);fill:#2a2928;fill-opacity:1;stroke:none;stroke-width:0.723255;stroke-miterlimit:4;stroke-dasharray:none"
           id="path893"
           transform="matrix(1.3844865,0,0,1.3807924,41.785635,-3.6738687)" />
        <path
           d="m 48.788972,117.7347 0.779316,-0.26939 q 0.07216,-0.0241 0.120265,-0.0722 0.04811,-0.0529 0.04811,-0.15875 v -5.19544 q 0,-0.0962 -0.05292,-0.14432 -0.04811,-0.0481 -0.115454,-0.0721 l -0.779316,-0.27902 v -0.38966 h 5.512937 v 1.76068 h -0.659051 l -0.144317,-0.92363 q -0.01443,-0.0914 -0.07216,-0.1347 -0.05773,-0.0481 -0.134697,-0.0481 h -2.501507 v 2.37163 h 1.46242 q 0.101022,0 0.144317,-0.0433 0.0433,-0.0433 0.06254,-0.13951 l 0.144318,-0.75045 h 0.529165 v 2.52075 h -0.529165 l -0.144318,-0.74564 q -0.01924,-0.0962 -0.06254,-0.13951 -0.0433,-0.0481 -0.144317,-0.0481 h -1.46242 v 2.64582 h 2.862301 q 0.06735,0 0.125076,-0.0481 0.06254,-0.0481 0.07697,-0.1395 l 0.149129,-1.02947 h 0.65424 v 1.87132 h -5.868921 z"
           style="font-style:normal;font-variant:normal;font-weight:normal;font-stretch:normal;font-size:10.5833px;line-height:1.25;font-family:'Sitka Small';-inkscape-font-specification:'Sitka Small';white-space:pre;shape-inside:url(#rect867-0-7-1);fill:#2a2928;fill-opacity:1;stroke:none;stroke-width:0.723255;stroke-miterlimit:4;stroke-dasharray:none"
           id="path895"
           transform="matrix(1.3844865,0,0,1.3807924,41.785635,-3.6738687)" />
        <path
           d="m 61.907446,116.52243 v 0.71197 q -0.211666,0.17318 -0.49068,0.36079 -0.279015,0.18281 -0.606135,0.33675 -0.322309,0.15393 -0.692725,0.25015 -0.365605,0.10102 -0.755263,0.10102 -0.779315,0 -1.423935,-0.24053 -0.639808,-0.24053 -1.096814,-0.70235 -0.457006,-0.46181 -0.707157,-1.1353 -0.250151,-0.67829 -0.250151,-1.54901 0,-0.83704 0.259772,-1.51052 0.259772,-0.6783 0.726399,-1.15454 0.466628,-0.47625 1.106436,-0.73121 0.644619,-0.25978 1.404693,-0.25978 0.274203,0 0.601324,0.0385 0.32712,0.0337 0.65424,0.0914 0.32712,0.0529 0.625377,0.11545 0.298256,0.0577 0.514733,0.10584 v 1.82802 h -0.65424 l -0.149129,-1.02946 q -0.0096,-0.0673 -0.08659,-0.12027 -0.07697,-0.0577 -0.134697,-0.0866 -0.16356,-0.077 -0.32712,-0.1347 -0.15875,-0.0577 -0.331931,-0.0962 -0.168371,-0.0385 -0.351173,-0.0529 -0.182802,-0.0192 -0.389658,-0.0192 -0.514733,0 -0.942876,0.17318 -0.423332,0.16838 -0.726399,0.51474 -0.303067,0.34636 -0.471438,0.87071 -0.16837,0.52436 -0.16837,1.23152 0,1.50571 0.668672,2.28022 0.673482,0.76969 1.943478,0.76969 0.346363,0 0.639809,-0.10583 0.298257,-0.11065 0.543597,-0.25977 0.24534,-0.15394 0.437763,-0.3175 0.197235,-0.16356 0.336742,-0.27421 z"
           style="font-style:normal;font-variant:normal;font-weight:normal;font-stretch:normal;font-size:10.5833px;line-height:1.25;font-family:'Sitka Small';-inkscape-font-specification:'Sitka Small';white-space:pre;shape-inside:url(#rect867-0-7-1);fill:#2a2928;fill-opacity:1;stroke:none;stroke-width:0.723255;stroke-miterlimit:4;stroke-dasharray:none"
           id="path897"
           transform="matrix(1.3844865,0,0,1.3807924,41.785635,-3.6738687)" />
        <path
           d="m 64.44743,117.7347 0.8178,-0.26939 q 0.08178,-0.0289 0.125076,-0.077 0.04811,-0.0481 0.04811,-0.15394 v -5.43597 h -1.601927 q -0.07697,0 -0.139507,0.0481 -0.05773,0.0433 -0.06735,0.1347 l -0.144318,1.02946 h -0.654241 v -1.85689 h 6.273011 v 1.85689 h -0.659051 l -0.144318,-1.02946 q -0.01443,-0.0962 -0.07697,-0.13951 -0.05773,-0.0433 -0.125076,-0.0433 h -1.601926 v 5.43597 q 0,0.10583 0.05292,0.15875 0.05292,0.0481 0.120265,0.0722 l 0.8178,0.26939 v 0.39928 H 64.44743 Z"
           style="font-style:normal;font-variant:normal;font-weight:normal;font-stretch:normal;font-size:10.5833px;line-height:1.25;font-family:'Sitka Small';-inkscape-font-specification:'Sitka Small';white-space:pre;shape-inside:url(#rect867-0-7-1);fill:#2a2928;fill-opacity:1;stroke:none;stroke-width:0.723255;stroke-miterlimit:4;stroke-dasharray:none"
           id="path899"
           transform="matrix(1.3844865,0,0,1.3807924,41.785635,-3.6738687)" />
        <g
           aria-label="CAPSTONE"
           transform="matrix(2.4164055,0,0,2.839748,-14.433483,-187.83744)"
           id="text865-9"
           style="font-style:normal;font-weight:normal;font-size:10.5833px;line-height:1.25;font-family:sans-serif;white-space:pre;shape-inside:url(#rect867-3-7);fill:#aa0000;fill-opacity:1;stroke:none;stroke-width:0.381747;stroke-miterlimit:4;stroke-dasharray:none">
          <path
             d="m 28.512384,116.52243 v 0.71197 q -0.211666,0.17318 -0.49068,0.36079 -0.279014,0.18281 -0.606134,0.33675 -0.32231,0.15393 -0.692725,0.25015 -0.365605,0.10102 -0.755263,0.10102 -0.779316,0 -1.423935,-0.24053 -0.639809,-0.24053 -1.096815,-0.70235 -0.457006,-0.46181 -0.707157,-1.1353 -0.25015,-0.67829 -0.25015,-1.54901 0,-0.83704 0.259772,-1.51052 0.259772,-0.6783 0.726399,-1.15454 0.466627,-0.47625 1.106436,-0.73121 0.644619,-0.25978 1.404692,-0.25978 0.274204,0 0.601324,0.0385 0.32712,0.0337 0.65424,0.0914 0.327121,0.0529 0.625377,0.11545 0.298257,0.0577 0.514733,0.10584 v 1.82802 h -0.65424 l -0.149128,-1.02946 q -0.0096,-0.0673 -0.08659,-0.12027 -0.07697,-0.0577 -0.134696,-0.0866 -0.163561,-0.077 -0.327121,-0.1347 -0.158749,-0.0577 -0.33193,-0.0962 -0.168371,-0.0385 -0.351174,-0.0529 -0.182802,-0.0192 -0.389657,-0.0192 -0.514734,0 -0.942876,0.17318 -0.423332,0.16838 -0.726399,0.51474 -0.303068,0.34636 -0.471438,0.87071 -0.168371,0.52436 -0.168371,1.23152 0,1.50571 0.668672,2.28022 0.673483,0.76969 1.943479,0.76969 0.346362,0 0.639808,-0.10583 0.298257,-0.11065 0.543597,-0.25977 0.24534,-0.15394 0.437764,-0.3175 0.197234,-0.16356 0.336741,-0.27421 z"
             style="font-style:normal;font-variant:normal;font-weight:normal;font-stretch:normal;font-family:'Sitka Small';-inkscape-font-specification:'Sitka Small';stroke-width:0.381747;stroke-miterlimit:4;stroke-dasharray:none"
             id="path870" />
          <path
             d="m 29.128131,117.7347 0.514733,-0.25015 q 0.08178,-0.0385 0.144318,-0.11064 0.06254,-0.0722 0.0914,-0.14913 l 1.972342,-5.01264 0.558029,-1.16416 h 0.65424 l 2.453401,6.20085 q 0.02886,0.0722 0.08178,0.14913 0.05773,0.077 0.129886,0.10583 l 0.538786,0.23091 v 0.39928 h -2.61215 v -0.39928 l 0.803368,-0.3175 -0.663861,-1.68851 h -2.612151 l -0.625377,1.65965 0.817801,0.34636 v 0.39928 H 29.12813 Z m 4.406501,-2.7709 -0.793748,-1.93867 -0.173181,-0.64943 H 32.46187 l -1.015035,2.5881 z"
             style="font-style:normal;font-variant:normal;font-weight:normal;font-stretch:normal;font-family:'Sitka Small';-inkscape-font-specification:'Sitka Small';stroke-width:0.381747;stroke-miterlimit:4;stroke-dasharray:none"
             id="path872" />
          <path
             d="m 36.969378,117.7347 0.779316,-0.26939 q 0.06735,-0.0241 0.115454,-0.0722 0.05292,-0.0529 0.05292,-0.15875 v -5.19544 q 0,-0.0962 -0.04811,-0.14432 -0.04811,-0.0481 -0.120264,-0.0721 l -0.779316,-0.27902 v -0.38966 h 2.886354 q 0.543597,0 1.015035,0.11065 0.476248,0.10583 0.827422,0.33674 0.355983,0.23091 0.558028,0.59651 0.202045,0.3608 0.202045,0.86591 0,0.53397 -0.177992,0.96212 -0.173181,0.42333 -0.49068,0.72158 -0.312689,0.29826 -0.750452,0.45701 -0.432954,0.15875 -0.952497,0.15875 -0.120265,0 -0.269393,-0.0241 -0.144318,-0.0289 -0.298257,-0.0722 -0.149128,-0.0481 -0.293446,-0.10583 -0.144318,-0.0625 -0.254961,-0.12989 v 2.20325 q 0,0.10583 0.05292,0.15875 0.05292,0.0481 0.125075,0.0722 l 0.81299,0.26939 v 0.39928 h -2.992187 z m 2.001206,-3.14612 q 0.08659,0.0241 0.202044,0.0433 0.120265,0.0144 0.250151,0.024 0.129886,0.01 0.264583,0.0144 0.134696,0.005 0.25015,0.005 0.307878,0 0.529165,-0.077 0.221288,-0.077 0.375226,-0.19724 0.153939,-0.12507 0.245341,-0.27901 0.09621,-0.15394 0.144317,-0.30788 0.05292,-0.15394 0.06735,-0.28864 0.01924,-0.1395 0.01924,-0.2309 0,-0.29345 -0.07697,-0.56284 -0.07216,-0.27421 -0.264582,-0.48106 -0.187613,-0.20686 -0.514733,-0.32712 -0.32712,-0.12508 -0.832232,-0.12508 h -0.659051 z"
             style="font-style:normal;font-variant:normal;font-weight:normal;font-stretch:normal;font-family:'Sitka Small';-inkscape-font-specification:'Sitka Small';stroke-width:0.381747;stroke-miterlimit:4;stroke-dasharray:none"
             id="path874" />
          <path
             d="m 43.627228,115.97884 h 0.663862 l 0.144317,1.00541 q 0.0096,0.0722 0.08659,0.13951 0.07697,0.0625 0.129886,0.10102 0.125075,0.0818 0.269393,0.16356 0.144318,0.077 0.307878,0.13951 0.16356,0.0625 0.346362,0.10102 0.187613,0.0385 0.394469,0.0385 0.394468,0 0.707157,-0.0818 0.317499,-0.0818 0.533975,-0.23572 0.216477,-0.15875 0.331931,-0.38003 0.115454,-0.22129 0.115454,-0.49549 0,-0.42334 -0.259772,-0.70235 -0.254961,-0.27901 -0.692725,-0.46182 -0.216476,-0.0866 -0.428142,-0.16356 -0.211666,-0.077 -0.418522,-0.14912 -0.206855,-0.077 -0.4089,-0.14913 -0.202045,-0.0722 -0.394468,-0.15394 -0.596514,-0.25015 -0.942876,-0.69754 -0.341552,-0.44738 -0.341552,-1.07757 0,-0.41852 0.187613,-0.76969 0.187613,-0.35599 0.509922,-0.61095 0.327121,-0.25977 0.764884,-0.40409 0.442575,-0.14432 0.947687,-0.14432 0.307878,0 0.591702,0.0289 0.288636,0.0289 0.548408,0.077 0.264582,0.0433 0.509922,0.10102 0.245341,0.0529 0.471438,0.10102 v 1.82803 H 47.64407 l -0.144317,-0.95731 q -0.0096,-0.0674 -0.08659,-0.1347 -0.07697,-0.0673 -0.134697,-0.10583 -0.07697,-0.0529 -0.177991,-0.10583 -0.09621,-0.0529 -0.221288,-0.0962 -0.125075,-0.0433 -0.279014,-0.0673 -0.153939,-0.0289 -0.341552,-0.0289 -0.360794,0 -0.644619,0.077 -0.279014,0.077 -0.471438,0.21167 -0.192423,0.12988 -0.293446,0.30788 -0.101022,0.17799 -0.101022,0.38003 0,0.1828 0.04811,0.35599 0.04811,0.17318 0.16356,0.33193 0.115454,0.15394 0.312688,0.28863 0.197234,0.1347 0.495491,0.24534 0.197234,0.0722 0.389658,0.14432 0.192423,0.0674 0.384847,0.13951 0.197234,0.0722 0.399279,0.15394 0.206856,0.077 0.432953,0.17318 0.24534,0.10583 0.481059,0.25496 0.24053,0.14913 0.428143,0.3656 0.187613,0.21167 0.303067,0.5003 0.115454,0.28864 0.115454,0.67349 0,0.39928 -0.158749,0.7745 -0.153939,0.37042 -0.49068,0.65905 -0.331931,0.28864 -0.861096,0.46182 -0.524355,0.17318 -1.260375,0.17318 -0.259772,0 -0.543597,-0.0433 -0.283825,-0.0385 -0.577271,-0.10103 -0.293446,-0.0625 -0.591702,-0.1395 -0.298257,-0.0818 -0.591703,-0.15875 z"
             style="font-style:normal;font-variant:normal;font-weight:normal;font-stretch:normal;font-family:'Sitka Small';-inkscape-font-specification:'Sitka Small';stroke-width:0.381747;stroke-miterlimit:4;stroke-dasharray:none"
             id="path876" />
          <path
             d="m 51.256798,117.7347 0.817801,-0.26939 q 0.08178,-0.0289 0.125075,-0.077 0.04811,-0.0481 0.04811,-0.15394 v -5.43597 h -1.601927 q -0.07697,0 -0.139507,0.0481 -0.05773,0.0433 -0.06735,0.1347 l -0.144318,1.02946 h -0.65424 v -1.85689 h 6.27301 v 1.85689 h -0.659051 l -0.144318,-1.02946 q -0.01443,-0.0962 -0.07697,-0.13951 -0.05773,-0.0433 -0.125076,-0.0433 H 53.30611 v 5.43597 q 0,0.10583 0.05292,0.15875 0.05292,0.0481 0.120265,0.0722 l 0.8178,0.26939 v 0.39928 h -3.040293 z"
             style="font-style:normal;font-variant:normal;font-weight:normal;font-stretch:normal;font-family:'Sitka Small';-inkscape-font-specification:'Sitka Small';stroke-width:0.381747;stroke-miterlimit:4;stroke-dasharray:none"
             id="path878" />
          <path
             d="m 60.271835,118.29273 q -0.822611,0 -1.457609,-0.25015 -0.634998,-0.25015 -1.072762,-0.72159 -0.432953,-0.47625 -0.659051,-1.15454 -0.221287,-0.67829 -0.221287,-1.53458 0,-0.80337 0.230908,-1.47204 0.235719,-0.66867 0.673483,-1.14973 0.442574,-0.48587 1.077572,-0.75045 0.634998,-0.2694 1.438367,-0.2694 0.870717,0 1.510525,0.27421 0.644619,0.2742 1.063141,0.76007 0.423332,0.48587 0.625377,1.15454 0.206855,0.66867 0.206855,1.4528 0,0.46663 -0.08659,0.92363 -0.08659,0.4522 -0.264582,0.8611 -0.177992,0.40409 -0.457006,0.75045 -0.274204,0.34155 -0.654241,0.5917 -0.380036,0.25016 -0.865906,0.38966 -0.48587,0.14432 -1.087193,0.14432 z m 0.08659,-0.63019 q 0.538786,0 0.942876,-0.20685 0.4089,-0.20686 0.678293,-0.58208 0.274204,-0.37523 0.408901,-0.89958 0.139507,-0.52917 0.139507,-1.17379 0,-0.73602 -0.144318,-1.32291 -0.144318,-0.5917 -0.437764,-1.0006 -0.288635,-0.41371 -0.73121,-0.63019 -0.437763,-0.22129 -1.034277,-0.22129 -0.57246,0 -0.98136,0.22129 -0.4089,0.22129 -0.673483,0.60613 -0.259772,0.38485 -0.384847,0.90439 -0.120265,0.51474 -0.120265,1.10163 0,0.73121 0.139507,1.32291 0.144318,0.5917 0.432953,1.01023 0.288636,0.41852 0.7264,0.64462 0.442574,0.22609 1.039087,0.22609 z"
             style="font-style:normal;font-variant:normal;font-weight:normal;font-stretch:normal;font-family:'Sitka Small';-inkscape-font-specification:'Sitka Small';stroke-width:0.381747;stroke-miterlimit:4;stroke-dasharray:none"
             id="path880" />
          <path
             d="m 64.885181,117.7347 0.779316,-0.30788 q 0.07216,-0.0289 0.120264,-0.0722 0.04811,-0.0433 0.04811,-0.14913 v -5.16658 q 0,-0.0962 -0.05292,-0.14432 -0.04811,-0.0481 -0.115454,-0.0721 l -0.803369,-0.27902 v -0.38966 h 2.082986 l 3.386656,4.8154 0.346362,0.60614 h 0.101022 v -4.51233 q 0,-0.0962 -0.05773,-0.1347 -0.05292,-0.0433 -0.120264,-0.0722 l -0.769695,-0.31269 v -0.38966 h 2.60734 v 0.38966 l -0.774505,0.31269 q -0.05773,0.0241 -0.115454,0.0673 -0.05773,0.0433 -0.05773,0.13951 v 5.01263 l -0.149128,1.10644 h -0.663862 l -3.684912,-5.21949 -0.331931,-0.60133 H 66.55926 v 4.84427 q 0,0.10583 0.05292,0.15394 0.05773,0.0433 0.115454,0.0673 l 0.764884,0.30788 v 0.39928 h -2.60734 z"
             style="font-style:normal;font-variant:normal;font-weight:normal;font-stretch:normal;font-family:'Sitka Small';-inkscape-font-specification:'Sitka Small';stroke-width:0.381747;stroke-miterlimit:4;stroke-dasharray:none"
             id="path882" />
          <path
             d="m 73.592349,117.7347 0.779316,-0.26939 q 0.07216,-0.0241 0.120265,-0.0722 0.04811,-0.0529 0.04811,-0.15875 v -5.19544 q 0,-0.0962 -0.05292,-0.14432 -0.04811,-0.0481 -0.115454,-0.0721 l -0.779316,-0.27902 v -0.38966 h 5.512937 v 1.76068 h -0.659051 l -0.144317,-0.92363 q -0.01443,-0.0914 -0.07216,-0.1347 -0.05773,-0.0481 -0.134697,-0.0481 h -2.501507 v 2.37163 h 1.46242 q 0.101022,0 0.144317,-0.0433 0.0433,-0.0433 0.06254,-0.13951 l 0.144318,-0.75045 h 0.529165 v 2.52075 H 77.40715 l -0.144318,-0.74564 q -0.01924,-0.0962 -0.06254,-0.13951 -0.0433,-0.0481 -0.144317,-0.0481 h -1.46242 v 2.64582 h 2.862302 q 0.06735,0 0.125075,-0.0481 0.06254,-0.0481 0.07697,-0.1395 l 0.149129,-1.02947 h 0.65424 v 1.87132 H 73.59235 Z"
             style="font-style:normal;font-variant:normal;font-weight:normal;font-stretch:normal;font-family:'Sitka Small';-inkscape-font-specification:'Sitka Small';stroke-width:0.381747;stroke-miterlimit:4;stroke-dasharray:none"
             id="path884" />
        </g>
        <rect
           style="font-variation-settings:normal;vector-effect:none;fill:#71bf26;fill-opacity:1;fill-rule:evenodd;stroke-width:1;stroke-linecap:butt;stroke-linejoin:miter;stroke-miterlimit:4;stroke-dasharray:none;stroke-dashoffset:0;stroke-opacity:1;stop-color:#000000"
           id="rect1381-6"
           width="102.03122"
           height="4.3120279"
           x="54.45816"
           y="120.68513"
           ry="0.39898783"
           rx="0.41889483" />
        <rect
           style="font-variation-settings:normal;vector-effect:none;fill:#a05a2c;fill-opacity:1;fill-rule:evenodd;stroke-width:1;stroke-linecap:butt;stroke-linejoin:miter;stroke-miterlimit:4;stroke-dasharray:none;stroke-dashoffset:0;stroke-opacity:1;stop-color:#000000"
           id="rect1381-1-2"
           width="102.03122"
           height="4.3120279"
           x="55.249226"
           y="163.58104"
           ry="0.39898783"
           rx="0.41889483" />
      </g>
    </g>
  </g>
</svg>
