<?xml version="1.0" encoding="UTF-8" standalone="no"?>
<svg
   xmlns:dc="http://purl.org/dc/elements/1.1/"
   xmlns:cc="http://creativecommons.org/ns#"
   xmlns:rdf="http://www.w3.org/1999/02/22-rdf-syntax-ns#"
   xmlns:svg="http://www.w3.org/2000/svg"
   xmlns="http://www.w3.org/2000/svg"
   xmlns:sodipodi="http://sodipodi.sourceforge.net/DTD/sodipodi-0.dtd"
   xmlns:inkscape="http://www.inkscape.org/namespaces/inkscape"
   width="210mm"
   height="297mm"
   viewBox="0 0 210 297"
   version="1.1"
   id="svg8"
   inkscape:version="1.0.2 (e86c870879, 2021-01-15, custom)"
   sodipodi:docname="capstoneproposallogo.svg">
  <defs
     id="defs2">
    <rect
       x="21.922619"
       y="108.47917"
       width="170.84524"
       height="77.485119"
       id="rect867" />
    <rect
       x="21.922619"
       y="108.47917"
       width="170.84525"
       height="77.485123"
       id="rect867-0" />
    <rect
       x="21.922619"
       y="108.47917"
       width="170.84525"
       height="77.485123"
       id="rect880" />
    <rect
       x="21.922619"
       y="108.47917"
       width="170.84525"
       height="77.485123"
       id="rect867-0-7" />
    <rect
       x="21.922619"
       y="108.47917"
       width="170.84525"
       height="77.485123"
       id="rect1024" />
    <rect
       x="21.922619"
       y="108.47917"
       width="170.84525"
       height="77.485123"
       id="rect867-3" />
    <rect
       x="21.922619"
       y="108.47917"
       width="170.84525"
       height="77.485123"
       id="rect1027" />
    <clipPath
       clipPathUnits="userSpaceOnUse"
       id="clipPath1487">
      <path
         id="path1489"
         style="fill:#ff0000;fill-opacity:1;fill-rule:nonzero;stroke:none;stroke-width:0.293966"
         d="M 55.620738,58.456896 V 92.31788 c 0.0161,0.01159 0.03224,0.02315 0.04848,0.03462 0.0308,0.02453 0.05993,0.05041 0.0925,0.07338 0.107455,0.0758 0.213065,0.154713 0.33299,0.217041 0.01463,0.0076 0.05957,0.0168 0.05167,0.0041 -0.01189,-0.019 -0.0952,-0.03093 -0.06889,-0.03101 0.04316,-9e-5 0.08254,0.02066 0.123753,0.03101 0.03605,0.07929 0.151728,0.03533 0.214339,0.07183 0.06456,0.03763 0.136089,0.06997 0.202855,0.106456 -0.0074,-2.65e-4 -0.04228,1.21e-4 -0.102703,0.0021 0.02499,0.0038 0.04942,0.0076 0.07272,0.01291 0.0162,-0.0057 0.02724,-0.0092 0.03509,-0.01138 0.02541,0.01405 0.05017,0.02866 0.07336,0.04444 0.03984,0.01707 0.07366,0.038 0.09824,0.06408 0.02796,0.02965 0.05371,0.06111 0.08102,0.09147 0.02668,0.0024 0.05993,0.0066 0.06251,0.0057 -0.02675,0.0024 -0.04855,0.02371 0.139705,0.122473 0.0092,0.0048 -0.01738,-0.01968 -0.0096,-0.02582 0.0084,-0.0066 0.02433,0.0016 0.03445,0.0062 0.09584,0.04407 0.114013,0.05458 0.158204,0.07545 0.127466,0.01828 0.251729,0.03904 0.372539,0.06873 0.160532,-0.05032 0.348928,-0.08217 0.571569,-0.08217 0.260633,0 0.262197,-0.0078 0.574761,0.04393 0.07168,0.01185 0.140387,0.03362 0.21051,0.05064 0.01868,0.0026 0.02345,0.0021 0.03509,0.0036 0.0036,5.3e-4 -0.0074,0.0028 -0.01084,0.0021 -0.0081,-0.0019 -0.0162,-0.0037 -0.02423,-0.0057 -0.05945,-0.0083 -0.147236,-0.02138 -0.111636,-0.01188 0.133597,0.03566 0.272093,0.05722 0.408264,0.08578 0.04298,0.01939 0.08478,0.04125 0.129495,0.05788 0.0072,0.0026 0.01532,-0.0026 0.02296,-0.0011 0.149908,0.03107 0.332722,0.137838 0.426763,0.193786 0.06636,0.03948 0.109699,0.10173 0.177977,0.139012 0.01711,0.0093 -0.0084,-0.03274 -0.01277,-0.04909 0.250981,0.07565 0.495939,0.163602 0.734875,0.261482 0.04769,0.01953 0.103359,0.03022 0.141615,0.06046 0.03185,0.02516 -0.08072,-0.02997 -0.121202,-0.04496 -0.160509,0.07426 -0.299224,0.133723 -0.421661,0.185002 0.865166,0.402503 1.17095,0.522402 0.954955,0.665594 0.07413,0.06818 0.02466,0.165523 -0.262821,0.320392 -0.02201,0.01185 -0.04473,0.04802 -0.06634,0.03566 -0.07542,-0.04311 -0.129619,-0.07129 -0.197753,-0.109038 -0.03515,0.01545 -0.08112,0.03748 -0.118651,0.05426 0.346266,0.671552 -0.541753,1.205855 -1.53163,0.517798 -0.13149,-0.0914 -0.258702,-0.186958 -0.368711,-0.29559 -0.05166,-0.01408 -0.103866,-0.02763 -0.152462,-0.04754 -0.08788,-0.03602 -0.157332,-0.09597 -0.232201,-0.147796 -0.01336,-0.0092 -0.03949,-0.02286 -0.05614,-0.03514 -0.01244,-0.0033 -0.02525,-0.0058 -0.03764,-0.0093 -0.02567,-0.0072 -0.04859,-0.01945 -0.07208,-0.03049 -0.07473,0.01442 -0.182771,0.01318 -0.340645,-0.01188 -0.02521,-0.004 -0.05255,-0.0041 -0.0791,-0.0057 -0.201539,0.04128 -0.448355,0.04704 -0.7387,0 -0.216811,-0.03512 -0.25669,-0.03576 -0.486092,-0.10387 -0.04944,-0.01468 -0.108408,-0.02138 -0.152459,-0.04341 -0.08305,-0.01125 -0.165902,-0.02373 -0.248786,-0.03566 -0.12064,-0.08669 -0.224937,-0.190703 -0.361695,-0.259934 -0.08176,-0.04139 0.135357,0.111847 0.192648,0.174667 0.0096,0.01053 -0.0569,-0.02254 -0.04529,-0.01344 0.02107,0.01667 0.05099,0.02371 0.07527,0.03721 0.0026,0.0016 0.0059,0.0074 0.0033,0.0067 -0.141067,-0.0334 -0.281268,-0.06915 -0.421658,-0.104386 V 118.78506 H 118.27839 V 58.456896 Z m 5.172831,36.626189 c 0.254708,-0.111908 0.433482,-0.185073 0.526915,-0.247012 -0.13863,-0.127495 -0.733225,-0.147207 -1.154622,-0.215493 0.01225,0.0097 0.03237,0.02487 0.03381,0.02585 0.148412,0.09988 0.261566,0.202655 0.347661,0.304374 0.08777,0.04704 0.14269,0.07492 0.246235,0.132292 z m -4.627416,-2.176611 c 0.16922,0.0333 0.213966,0.03855 0.320232,0.05736 -0.0016,-0.01058 -0.0047,-0.02193 -0.0033,-0.03101 -0.07961,-0.0058 -0.139244,-0.0088 -0.317041,-0.02635 z m 3.725408,1.647444 c 0.04482,0.03527 0.08723,0.07222 0.128221,0.110072 0.01509,0.0086 0.0293,0.01662 0.04593,0.02582 0.002,-0.02938 0.0033,-0.05865 0.0038,-0.08785 -0.06823,-0.0136 -0.127124,-0.02981 -0.177977,-0.04806 z m -1.346634,0.05529 c -0.03224,-0.0019 -0.07475,0.191082 -0.02296,0.24443 0.02094,0.02156 0.04961,0.04202 0.07464,0.06305 0.01669,-0.0019 0.02747,-0.0034 0.04274,-0.0052 -0.01891,-0.09801 -0.04217,-0.195185 -0.08165,-0.288869 -0.0039,-0.0092 -0.0082,-0.01318 -0.01277,-0.01344 z m 0.09696,0.312645 c -0.0057,7.94e-4 -0.02675,0.0035 -0.03317,0.0047 0.01434,0.01175 0.02613,0.02413 0.04146,0.03566 -0.0023,-0.01355 -0.0057,-0.02681 -0.0083,-0.04031 z m -2.123612,0.01601 c 0.01787,0.007 0.03908,0.01749 0.05167,0.02016 0.03807,0.0081 0.156466,0.01098 0.118014,0.0041 -0.05611,-0.0099 -0.113157,-0.01614 -0.169687,-0.02429 z" />
    </clipPath>
    <clipPath
       clipPathUnits="userSpaceOnUse"
       id="clipPath1499">
      <path
         id="path1501"
         style="fill:#ff0000;fill-opacity:1;fill-rule:nonzero;stroke:none;stroke-width:0.293966"
         d="m 118.27839,58.456896 v 60.328094 h 62.65766 V 94.720833 c -0.0273,0.01061 -0.0432,0.01831 -0.1027,0.03772 -0.077,0.02511 -0.15769,0.04214 -0.2373,0.06149 -0.002,0.0016 -0.005,0.0047 -0.007,0.0062 -0.0302,0.02445 -0.0713,0.03486 -0.11483,0.04082 -0.0141,0.0089 -0.0284,0.01765 -0.0427,0.02635 l -6.5e-4,-5.29e-4 c -0.72321,0.439399 -1.28277,0.08481 -1.05128,-0.374652 -0.0817,-0.0075 -0.11388,-0.06709 -0.12376,-0.150379 -0.0382,0.0117 -0.0759,0.02265 -0.11418,0.03462 -0.33669,0.104651 -0.63948,0.246423 -0.97537,0.302305 -0.15093,0.04533 -0.29145,0.08257 -0.36233,0.08268 -0.16323,2.64e-4 -0.39632,-0.03044 -0.45101,-0.155028 -0.006,-0.01476 -0.1259,-0.679185 0.15948,-0.749826 0.10298,-0.02548 0.2089,-0.04128 0.31449,-0.05891 0.005,-0.0047 0.0138,-0.0091 0.0223,-0.01344 0.009,-0.0046 0.0163,-0.0087 0.0274,-0.01291 0.0318,-0.01212 0.0693,-0.02326 0.0925,-0.03307 0.11153,-0.04711 0.23187,-0.08 0.34766,-0.119891 0.38765,-0.128352 0.77311,-0.258307 1.15334,-0.400492 0.093,-0.03477 0.18244,-0.0755 0.27749,-0.106455 0.22824,-0.07435 0.34464,-0.103068 0.48546,-0.134358 0.12096,-0.0458 0.23807,-0.09666 0.33809,-0.171048 0.12844,-0.09198 0.24682,-0.192061 0.36488,-0.292489 V 58.456896 Z m 60.9774,35.910988 c 0.0103,-0.0031 0.0204,-0.0062 0.0306,-0.0093 -0.0114,-0.0033 -0.0231,-0.0063 -0.0344,-0.0098 3.3e-4,0.0072 0.003,0.01228 0.004,0.01913 z m 0.0306,-0.0093 c 0.0547,0.01601 0.1096,0.03158 0.16585,0.04496 0.009,-0.01185 0.0159,-0.02323 0.0262,-0.03514 0.002,-0.02257 0.003,-0.04573 0.004,-0.06925 -0.0654,0.01963 -0.13077,0.03939 -0.19648,0.05943 z m 0.16585,0.04496 c -0.0301,0.03877 -0.0537,0.07698 -0.0727,0.114723 0.0158,0.0013 0.0323,0.0019 0.0517,-5.29e-4 0.008,-0.0011 0.0151,-0.0037 0.023,-0.0052 0.01,-0.03198 0.0158,-0.06707 0.0204,-0.10387 -0.007,-0.0019 -0.0149,-0.0034 -0.0223,-0.0052 z" />
    </clipPath>
    <rect
       x="21.922619"
       y="108.47917"
       width="170.84525"
       height="77.485123"
       id="rect867-0-7-1" />
    <rect
       x="21.922619"
       y="108.47917"
       width="170.84525"
       height="77.485123"
       id="rect1569" />
    <rect
       x="21.922619"
       y="108.47917"
       width="170.84525"
       height="77.485123"
       id="rect867-3-7" />
    <rect
       x="21.922619"
       y="108.47917"
       width="170.84525"
       height="77.485123"
       id="rect1572" />
  </defs>
  <sodipodi:namedview
     id="base"
     pagecolor="#ffffff"
     bordercolor="#666666"
     borderopacity="1.0"
     inkscape:pageopacity="0.0"
     inkscape:pageshadow="2"
     inkscape:zoom="1"
     inkscape:cx="408.68134"
     inkscape:cy="586.21021"
     inkscape:document-units="mm"
     inkscape:current-layer="layer1"
     inkscape:document-rotation="0"
     showgrid="false"
     showguides="false"
     inkscape:window-width="1920"
     inkscape:window-height="1017"
     inkscape:window-x="-8"
     inkscape:window-y="-8"
     inkscape:window-maximized="1" />
  <metadata
     id="metadata5">
    <rdf:RDF>
      <cc:Work
         rdf:about="">
        <dc:format>image/svg+xml</dc:format>
        <dc:type
           rdf:resource="http://purl.org/dc/dcmitype/StillImage" />
        <dc:title></dc:title>
      </cc:Work>
    </rdf:RDF>
  </metadata>
  <g
     inkscape:label="Layer 1"
     inkscape:groupmode="layer"
     id="layer1">
    <path
       style="fill:#000000;stroke-width:0.352778"
       id="path1351"
       d="" />
    <g
       id="g1646"
       style="stroke-width:1;stroke-miterlimit:4;stroke-dasharray:none"
       inkscape:export-xdpi="200.21001"
       inkscape:export-ydpi="200.21001">
      <path
         style="fill:#666666;fill-opacity:1;stroke-width:1;stroke-miterlimit:4;stroke-dasharray:none"
         d="m 84.123147,119.61403 c 0,-0.3856 1.27162,-3.01924 2.16148,-4.47665 1.22233,-2.0019 3.73625,-4.72032 5.59522,-6.05037 1.362123,-0.97455 3.811793,-2.33108 4.209563,-2.33108 0.1198,0 0.36485,0.38655 0.58776,0.92715 0.21026,0.50993 0.99034,2.24979 1.7335,3.86634 0.74317,1.61655 1.35122,2.99654 1.35122,3.06664 0,0.0701 -0.2315,0.20861 -0.51444,0.30779 -1.70719,0.59847 -4.116,2.39145 -5.28185,3.9315 l -0.71986,0.95091 -4.561293,0.002 c -3.69201,0.002 -4.5613,-0.0354 -4.5613,-0.19421 z m 30.111413,-1.35306 c -1.44597,-1.60264 -2.73476,-2.55618 -4.32303,-3.19849 l -0.80909,-0.3272 0.72677,-1.57908 c 0.39972,-0.86849 1.21031,-2.66464 1.8013,-3.99142 1.22481,-2.74972 0.94729,-2.58151 2.74231,-1.6622 3.16971,1.62333 6.22728,4.51153 8.28593,7.82693 0.575,0.92603 1.81618,3.50546 1.99544,4.14694 l 0.0933,0.33378 -4.57054,-0.0144 -4.57054,-0.0144 -1.37182,-1.52046 z m -13.50198,-4.19908 c -0.83305,-1.80391 -3.98869,-8.92406 -3.98869,-8.99983 0,-0.12417 1.74509,-0.67368 2.94941,-0.92873 1.75389,-0.37144 7.80838,-0.3795 9.60271,-0.0128 1.31645,0.26905 2.48314,0.61954 2.80018,0.84121 0.24778,0.17323 0.15222,0.41478 -2.39432,6.05235 l -1.96304,4.34578 h -3.20339 -3.20341 z"
         id="path863-9" />
      <path
         style="fill:#543526;fill-opacity:1;stroke-width:1;stroke-miterlimit:4;stroke-dasharray:none"
         d="m 74.967027,120.20631 c -0.19079,-0.0814 -0.24693,-0.14795 -0.34037,-0.40351 -0.0457,-0.12514 -0.10212,-0.22753 -0.12527,-0.22753 -0.0232,0 -0.0421,-0.10277 -0.0421,-0.22838 0,-0.27867 -0.12397,-0.57787 -0.2774,-0.66957 -0.0627,-0.0374 -0.15774,-0.15403 -0.21126,-0.25905 -0.064,-0.12564 -0.10842,-0.16915 -0.12979,-0.12722 -0.0444,0.0871 -0.17623,-0.14508 -0.17623,-0.31025 0,-0.0769 -0.0186,-0.11116 -0.0483,-0.0889 -0.0266,0.0199 -0.041,0.12967 -0.0319,0.24408 0.009,0.11434 0.004,0.20789 -0.0113,0.20789 -0.083,0 -0.39779,-0.34324 -0.51995,-0.56689 -0.14423,-0.26406 -0.31563,-0.84413 -0.31563,-1.06819 0,-0.18508 -0.0718,-0.38025 -0.15394,-0.41847 -0.0764,-0.0356 -0.30468,0.0834 -0.35698,0.18597 -0.017,0.0333 -0.0557,0.23399 -0.0861,0.44593 -0.0304,0.21195 -0.11921,0.56228 -0.19748,0.7785 -0.25286,0.69867 -0.2537,1.27895 -0.002,1.61269 0.16739,0.22224 0.2029,0.34935 0.12812,0.45861 -0.0471,0.0688 -0.12217,0.0792 -0.40261,0.0559 -0.39284,-0.0326 -0.47396,-0.0889 -0.47396,-0.32882 0,-0.0936 -0.023,-0.19805 -0.0512,-0.23217 -0.0388,-0.0471 -0.0323,-0.15944 0.027,-0.46468 0.0615,-0.31653 0.0688,-0.45724 0.0343,-0.65804 l -0.0439,-0.25542 -0.005,0.22754 c -0.003,0.12515 -0.0231,0.22754 -0.045,0.22754 -0.0219,0 -0.0762,-0.10671 -0.12067,-0.23714 -0.058,-0.17 -0.0956,-0.22235 -0.13272,-0.18494 -0.0379,0.0381 -0.0659,-0.0245 -0.10367,-0.23133 -0.10916,-0.59733 -0.10623,-0.84708 0.0154,-1.31405 0.13368,-0.51317 0.11999,-0.7437 -0.0487,-0.82151 -0.0598,-0.0276 -0.31031,-0.0463 -0.55669,-0.0416 -0.64886,0.0124 -1.03061,-0.16639 -1.9049,-0.89173 -0.21853,-0.18131 -0.42209,-0.31944 -0.45234,-0.30696 -0.0302,0.0124 -0.0876,0.15923 -0.12735,0.32613 -0.0398,0.16691 -0.18209,0.60461 -0.31624,0.97269 -0.33275,0.913 -0.33276,0.91308 -0.18654,1.62263 0.17859,0.86666 0.29116,1.1923 0.49097,1.42027 0.0946,0.1079 0.17197,0.21778 0.17201,0.24417 4e-5,0.0264 0.0919,0.16709 0.20423,0.31267 0.26329,0.34135 0.22432,0.39978 -0.29916,0.44858 -0.35927,0.0335 -0.38384,0.029 -0.4315,-0.079 -0.0278,-0.063 -0.0901,-0.11453 -0.13838,-0.11453 -0.056,0 -0.10347,-0.0535 -0.13092,-0.14722 -0.0237,-0.081 -0.0624,-0.18807 -0.0861,-0.23798 -0.0237,-0.0499 -0.0918,-0.35107 -0.15146,-0.66924 -0.1571,-0.83775 -0.47157,-1.75802 -0.72294,-2.1156 -0.0422,-0.06 -0.0549,-0.14775 -0.037,-0.25431 0.015,-0.0895 0.0395,-0.23501 0.0544,-0.32335 0.0149,-0.0883 0.013,-0.16061 -0.004,-0.16061 -0.0804,0 -0.27851,0.18736 -0.35925,0.3397 -0.0493,0.0929 -0.1618,0.30566 -0.25012,0.47279 -0.16947,0.3207 -0.25306,0.676 -0.33789,1.43613 -0.0501,0.44928 -0.0489,0.46214 0.0984,1.01019 0.1111,0.4135 0.18709,0.60219 0.29792,0.73963 0.12153,0.15074 0.13702,0.19353 0.0846,0.23376 -0.0353,0.0271 -0.0768,0.0496 -0.0922,0.05 -0.0154,4e-4 -0.0389,0.0516 -0.0523,0.11353 -0.0228,0.10548 -0.0485,0.11148 -0.4015,0.0937 -0.33882,-0.0171 -0.38915,-0.0335 -0.49466,-0.16149 -0.0885,-0.10731 -0.12306,-0.21301 -0.14011,-0.42831 -0.0124,-0.15722 -0.0478,-0.30993 -0.0786,-0.33938 -0.0451,-0.0431 -0.044,-0.12122 0.005,-0.40154 0.0336,-0.19139 0.0822,-0.81781 0.108,-1.392 0.0258,-0.57421 0.0554,-1.09102 0.0659,-1.14849 0.0104,-0.0575 -5.9e-4,-0.21123 -0.0248,-0.3417 -0.0584,-0.31603 0.002,-0.52329 0.23001,-0.78854 0.21437,-0.24943 0.3907,-0.67146 0.39006,-0.93359 -3.2e-4,-0.10305 -0.0499,-0.41626 -0.11045,-0.696 -0.0736,-0.34045 -0.11809,-0.72103 -0.13444,-1.15107 -0.0143,-0.37688 -0.0618,-0.81938 -0.11492,-1.07043 -0.0887,-0.41959 -0.0904,-0.61851 -0.01,-1.16481 0.0276,-0.18723 0.0222,-0.20077 -0.0789,-0.20077 -0.1369,0 -0.26793,0.16794 -0.39739,0.50929 -0.1431,0.37733 -0.14104,1.08666 0.004,1.57871 0.0772,0.26096 0.10283,0.46021 0.10231,0.79658 -3.3e-4,0.26454 0.0246,0.52193 0.0609,0.62736 0.0778,0.22577 0.0755,0.43223 -0.007,0.6373 l -0.0647,0.16061 0.0222,-0.17923 c 0.0123,-0.0986 0.009,-0.24313 -0.008,-0.32123 l -0.0302,-0.142 -0.0332,0.16062 c -0.0499,0.24145 -0.19735,0.71954 -0.23566,0.76397 -0.036,0.0418 -0.006,-0.1937 0.0718,-0.56107 0.0699,-0.33042 0.0188,-0.55219 -0.18198,-0.78997 -0.21946,-0.25987 -0.25187,-0.43144 -0.14953,-0.79164 0.0646,-0.22738 0.08,-0.45463 0.0808,-1.19114 10e-4,-0.82839 0.01,-0.92939 0.096,-1.1243 0.12596,-0.28387 0.24892,-0.41396 0.56719,-0.60014 0.14569,-0.0852 0.35429,-0.21827 0.46357,-0.29565 0.10927,-0.0774 0.35922,-0.19005 0.55546,-0.25037 0.19624,-0.0603 0.55385,-0.21252 0.79469,-0.33824 l 0.43789,-0.22856 0.90506,-0.004 c 0.59231,-0.003 0.95846,-0.0265 1.05958,-0.0694 0.20109,-0.0853 1.79871,-0.469 2.14124,-0.5143 0.26898,-0.0355 1.47536,0.10684 2.31784,0.27362 0.23067,0.0457 0.75715,0.10019 1.16996,0.12117 0.71966,0.0366 0.76241,0.0451 1.03948,0.20648 0.55777,0.32492 0.99955,0.8599 1.27947,1.54943 0.16893,0.41613 0.18901,0.49688 0.35252,1.41773 0.22095,1.24425 0.42291,1.82592 0.80439,2.31664 0.21045,0.2707 0.25797,0.30478 0.49757,0.3568 0.31811,0.0691 0.34986,0.0891 0.28679,0.18131 -0.037,0.0541 -0.0289,0.0786 0.0341,0.10287 0.0455,0.0175 0.14826,0.10953 0.22836,0.20451 0.14249,0.16893 0.14348,0.17328 0.0462,0.20114 -0.0947,0.0271 -0.0886,0.045 0.12716,0.37092 0.21615,0.32663 0.2462,0.4163 0.22875,0.68266 -0.004,0.0642 0.0221,0.22308 0.0584,0.35295 0.0692,0.24703 0.0675,0.44764 -0.004,0.43007 -0.0238,-0.006 -0.0338,0.10937 -0.0233,0.26769 0.0135,0.20444 -0.007,0.34882 -0.0771,0.54569 -0.0525,0.14723 -0.10685,0.38335 -0.12071,0.5247 -0.0219,0.22304 -0.0375,0.2549 -0.11812,0.24093 -0.0672,-0.0117 -0.11514,0.0339 -0.17332,0.16482 -0.0442,0.0995 -0.17738,0.33434 -0.2959,0.52187 -0.19161,0.30316 -0.30704,0.60763 -0.30778,0.81182 -1.3e-4,0.038 -0.04,0.1635 -0.0885,0.27892 -0.11347,0.26974 -0.34904,0.37344 -0.63649,0.28021 -0.10305,-0.0335 -0.23015,-0.0472 -0.28245,-0.0307 -0.18198,0.0577 -0.30945,-0.026 -0.40105,-0.26341 -0.0482,-0.12489 -0.18702,-0.35381 -0.30851,-0.50869 -0.19495,-0.24853 -0.22607,-0.27054 -0.26493,-0.18738 -0.0413,0.0885 -0.0481,0.0877 -0.11141,-0.013 -0.037,-0.0589 -0.068,-0.19282 -0.0688,-0.29762 -0.001,-0.10479 -0.0282,-0.23508 -0.0611,-0.28952 -0.0563,-0.0933 -0.0614,-0.0908 -0.0891,0.0433 -0.0318,0.15352 -0.11607,0.19591 -0.11607,0.0584 0,-0.0585 -0.0258,-0.074 -0.085,-0.0512 -0.0644,0.0247 -0.0885,0.004 -0.0993,-0.0859 -0.008,-0.0652 -0.0422,-0.12973 -0.0763,-0.14335 -0.0446,-0.0178 -0.055,0.007 -0.0372,0.0895 0.0345,0.16013 -0.0717,0.14738 -0.18137,-0.0218 -0.0486,-0.0748 -0.10845,-0.25037 -0.13317,-0.39013 -0.0724,-0.40922 -0.12874,-0.54197 -0.25873,-0.60917 -0.0673,-0.0348 -0.15608,-0.0974 -0.19738,-0.13911 -0.07,-0.0708 -0.0741,-0.0374 -0.0604,0.49712 0.014,0.5472 0.0229,0.59305 0.19685,1.01878 0.10921,0.26726 0.26711,0.54939 0.39426,0.70447 0.21697,0.26461 0.36114,0.50605 0.36114,0.60479 0,0.0305 -0.0475,0.0554 -0.10565,0.0554 -0.0581,0 -0.11708,0.0361 -0.13106,0.0803 -0.0297,0.0941 -0.28831,0.10213 -0.49175,0.0154 z m 3.47327,-4.14612 c 0.10924,-0.11988 0.10518,-0.41714 -0.008,-0.55385 -0.10725,-0.13006 -0.15943,-0.13479 -0.21274,-0.0192 -0.10307,0.22333 -0.19702,-0.18085 -0.0955,-0.41086 0.0247,-0.056 0.13472,-0.18497 0.24444,-0.28657 0.10972,-0.1016 0.18387,-0.19584 0.16477,-0.20943 -0.0552,-0.0392 -0.42296,0.0911 -0.58912,0.20877 -0.39753,0.28154 -0.46715,0.86709 -0.14601,1.228 0.14454,0.16243 0.51062,0.18708 0.64172,0.0432 z"
         id="path923-6" />
      <path
         style="fill:#543526;fill-opacity:1;stroke-width:1;stroke-miterlimit:4;stroke-dasharray:none"
         d="m 134.55755,120.31375 c 0.19079,-0.0814 0.24694,-0.14794 0.34037,-0.4035 0.0457,-0.12514 0.10212,-0.22754 0.12527,-0.22754 0.0232,0 0.0421,-0.10277 0.0421,-0.22837 0,-0.27867 0.12397,-0.57788 0.2774,-0.66958 0.0627,-0.0374 0.15774,-0.15402 0.21126,-0.25905 0.064,-0.12564 0.10842,-0.16915 0.12979,-0.12722 0.0444,0.0871 0.17624,-0.14508 0.17624,-0.31025 0,-0.0769 0.0186,-0.11116 0.0483,-0.0889 0.0266,0.0199 0.041,0.12968 0.0319,0.24408 -0.009,0.11434 -0.004,0.20789 0.0113,0.20789 0.083,0 0.39779,-0.34324 0.51995,-0.56689 0.14423,-0.26405 0.31563,-0.84413 0.31563,-1.06819 0,-0.18508 0.0718,-0.38025 0.15394,-0.41847 0.0764,-0.0355 0.30468,0.0834 0.35698,0.18597 0.017,0.0333 0.0557,0.23399 0.0861,0.44593 0.0304,0.21195 0.11921,0.56228 0.19747,0.77851 0.25287,0.69866 0.25371,1.27894 0.002,1.61268 -0.16738,0.22224 -0.2029,0.34935 -0.12812,0.45862 0.0471,0.0688 0.12217,0.0792 0.40261,0.0559 0.39285,-0.0326 0.47396,-0.0889 0.47396,-0.32883 0,-0.0936 0.023,-0.19804 0.0512,-0.23217 0.0388,-0.047 0.0323,-0.15944 -0.027,-0.46468 -0.0615,-0.31652 -0.0688,-0.45723 -0.0343,-0.65803 l 0.0439,-0.25543 0.005,0.22754 c 0.003,0.12515 0.0231,0.22754 0.045,0.22754 0.0219,0 0.0762,-0.10671 0.12067,-0.23714 0.058,-0.16999 0.0956,-0.22235 0.13273,-0.18494 0.0379,0.0381 0.0659,-0.0245 0.10366,-0.23133 0.10917,-0.59733 0.10623,-0.84708 -0.0154,-1.31405 -0.13368,-0.51317 -0.11999,-0.74369 0.0488,-0.82151 0.0598,-0.0276 0.31031,-0.0463 0.55669,-0.0416 0.64886,0.0124 1.03061,-0.16638 1.9049,-0.89172 0.21854,-0.18131 0.42209,-0.31944 0.45235,-0.30697 0.0302,0.0124 0.0876,0.15923 0.12734,0.32613 0.0398,0.16691 0.1821,0.60462 0.31624,0.97269 0.33275,0.91301 0.33277,0.91308 0.18654,1.62264 -0.17859,0.86665 -0.29116,1.19229 -0.49097,1.42027 -0.0946,0.10789 -0.17197,0.21777 -0.17201,0.24417 -4e-5,0.0264 -0.0919,0.16708 -0.20423,0.31266 -0.26329,0.34135 -0.22432,0.39978 0.29916,0.44858 0.35928,0.0335 0.38384,0.029 0.4315,-0.079 0.0278,-0.063 0.0901,-0.11452 0.13839,-0.11452 0.056,0 0.10347,-0.0535 0.13091,-0.14723 0.0237,-0.081 0.0624,-0.18807 0.0861,-0.23798 0.0237,-0.0499 0.0918,-0.35107 0.15146,-0.66923 0.1571,-0.83776 0.47157,-1.75803 0.72295,-2.11561 0.0422,-0.06 0.0549,-0.14775 0.037,-0.25431 -0.015,-0.0895 -0.0395,-0.235 -0.0544,-0.32334 -0.0149,-0.0883 -0.013,-0.16061 0.004,-0.16061 0.0804,0 0.2785,0.18736 0.35925,0.33969 0.0493,0.0929 0.16179,0.30566 0.25011,0.4728 0.16947,0.3207 0.25307,0.67599 0.33789,1.43612 0.0501,0.44928 0.0489,0.46214 -0.0984,1.01019 -0.1111,0.4135 -0.18709,0.60219 -0.29792,0.73963 -0.12153,0.15074 -0.13702,0.19353 -0.0846,0.23376 0.0353,0.0271 0.0768,0.0496 0.0922,0.05 0.0154,4.1e-4 0.0389,0.0516 0.0523,0.11353 0.0228,0.10548 0.0485,0.11149 0.4015,0.0937 0.33882,-0.0171 0.38916,-0.0335 0.49467,-0.16149 0.0885,-0.10731 0.12305,-0.21301 0.1401,-0.42831 0.0124,-0.15721 0.0478,-0.30993 0.0786,-0.33938 0.045,-0.0431 0.044,-0.12122 -0.005,-0.40154 -0.0336,-0.19139 -0.0823,-0.81781 -0.108,-1.392 -0.0258,-0.5742 -0.0554,-1.09102 -0.0659,-1.14849 -0.0104,-0.0575 5.9e-4,-0.21123 0.0248,-0.3417 0.0584,-0.31603 -0.002,-0.52329 -0.23001,-0.78854 -0.21437,-0.24942 -0.3907,-0.67146 -0.39006,-0.93358 3.3e-4,-0.10306 0.0499,-0.41627 0.11046,-0.69601 0.0736,-0.34045 0.11808,-0.72103 0.13443,-1.15107 0.0143,-0.37687 0.0618,-0.81938 0.11492,-1.07042 0.0887,-0.4196 0.0904,-0.61851 0.01,-1.16481 -0.0276,-0.18724 -0.0222,-0.20077 0.0789,-0.20077 0.1369,0 0.26794,0.16794 0.39739,0.50928 0.14311,0.37734 0.14105,1.08666 -0.004,1.57872 -0.0772,0.26095 -0.10282,0.4602 -0.1023,0.79658 3.3e-4,0.26453 -0.0246,0.52192 -0.0609,0.62736 -0.0778,0.22576 -0.0755,0.43222 0.007,0.63729 l 0.0647,0.16061 -0.0222,-0.17923 c -0.0123,-0.0986 -0.009,-0.24313 0.008,-0.32123 l 0.0302,-0.142 0.0332,0.16062 c 0.0499,0.24145 0.19734,0.71954 0.23566,0.76398 0.036,0.0418 0.006,-0.1937 -0.0718,-0.56107 -0.0699,-0.33043 -0.0188,-0.5522 0.18198,-0.78998 0.21945,-0.25987 0.25186,-0.43144 0.14953,-0.79164 -0.0646,-0.22738 -0.08,-0.45463 -0.0808,-1.19114 -0.001,-0.82839 -0.01,-0.92939 -0.096,-1.1243 -0.12597,-0.28387 -0.24893,-0.41395 -0.5672,-0.60014 -0.14569,-0.0852 -0.35429,-0.21826 -0.46356,-0.29565 -0.10928,-0.0774 -0.35923,-0.19005 -0.55547,-0.25037 -0.19624,-0.0603 -0.55385,-0.21252 -0.79469,-0.33824 l -0.43789,-0.22856 -0.90506,-0.004 c -0.59231,-0.003 -0.95846,-0.0265 -1.05958,-0.0694 -0.20109,-0.0853 -1.79871,-0.469 -2.14124,-0.51429 -0.26898,-0.0355 -1.47536,0.10683 -2.31783,0.27361 -0.23068,0.0457 -0.75716,0.10019 -1.16997,0.12117 -0.71966,0.0366 -0.76241,0.0451 -1.03948,0.20648 -0.55777,0.32492 -0.99955,0.85991 -1.27946,1.54943 -0.16894,0.41613 -0.18901,0.49688 -0.35253,1.41774 -0.22095,1.24425 -0.42291,1.82591 -0.80439,2.31663 -0.21045,0.2707 -0.25797,0.30478 -0.49757,0.3568 -0.3181,0.0691 -0.34986,0.0891 -0.28679,0.18131 0.037,0.0541 0.0289,0.0786 -0.0341,0.10287 -0.0455,0.0175 -0.14825,0.10954 -0.22835,0.20451 -0.1425,0.16894 -0.14349,0.17328 -0.0462,0.20114 0.0947,0.0271 0.0886,0.045 -0.12717,0.37093 -0.21615,0.32662 -0.2462,0.41629 -0.22875,0.68265 0.004,0.0643 -0.0221,0.22309 -0.0584,0.35295 -0.0692,0.24703 -0.0675,0.44764 0.004,0.43007 0.0238,-0.006 0.0338,0.10937 0.0233,0.26769 -0.0135,0.20444 0.007,0.34882 0.0771,0.54569 0.0525,0.14723 0.10685,0.38335 0.12071,0.5247 0.0219,0.22304 0.0375,0.2549 0.11813,0.24093 0.0672,-0.0117 0.11514,0.0339 0.17332,0.16482 0.0442,0.0995 0.17737,0.33434 0.29589,0.52187 0.19161,0.30316 0.30705,0.60763 0.30778,0.81182 1.3e-4,0.0379 0.04,0.1635 0.0885,0.27892 0.11347,0.26975 0.34904,0.37344 0.6365,0.28021 0.10305,-0.0335 0.23014,-0.0472 0.28244,-0.0307 0.18199,0.0577 0.30946,-0.026 0.40105,-0.2634 0.0482,-0.1249 0.18702,-0.35382 0.30852,-0.50869 0.19495,-0.24854 0.22606,-0.27054 0.26492,-0.18739 0.0413,0.0885 0.0481,0.0877 0.11141,-0.013 0.037,-0.0589 0.068,-0.19282 0.0688,-0.29761 10e-4,-0.1048 0.0282,-0.23509 0.0611,-0.28953 0.0563,-0.0933 0.0614,-0.0908 0.0891,0.0433 0.0318,0.15352 0.11607,0.19591 0.11607,0.0584 0,-0.0585 0.0258,-0.074 0.085,-0.0512 0.0644,0.0248 0.0885,0.004 0.0993,-0.0859 0.008,-0.0652 0.0422,-0.12973 0.0762,-0.14335 0.0446,-0.0178 0.055,0.007 0.0372,0.0895 -0.0345,0.16013 0.0716,0.14739 0.18137,-0.0218 0.0486,-0.0748 0.10845,-0.25037 0.13317,-0.39013 0.0724,-0.40922 0.12874,-0.54196 0.25873,-0.60917 0.0673,-0.0348 0.15608,-0.0974 0.19738,-0.1391 0.07,-0.0708 0.0741,-0.0374 0.0604,0.49711 -0.014,0.5472 -0.0229,0.59305 -0.19685,1.01879 -0.10921,0.26725 -0.26711,0.54938 -0.39426,0.70446 -0.21696,0.26462 -0.36113,0.50605 -0.36113,0.60479 0,0.0305 0.0475,0.0554 0.10564,0.0554 0.0581,0 0.11708,0.0361 0.13106,0.0803 0.0297,0.0941 0.28832,0.10213 0.49176,0.0154 z m -3.47327,-4.14612 c -0.10923,-0.11987 -0.10518,-0.41713 0.008,-0.55385 0.10725,-0.13006 0.15943,-0.13478 0.21274,-0.0192 0.10307,0.22333 0.19702,-0.18085 0.0955,-0.41086 -0.0247,-0.056 -0.13471,-0.18497 -0.24444,-0.28657 -0.10971,-0.1016 -0.18387,-0.19583 -0.16476,-0.20943 0.0552,-0.0393 0.42295,0.0911 0.58912,0.20877 0.39752,0.28154 0.46714,0.86709 0.14601,1.22801 -0.14454,0.16243 -0.51063,0.18707 -0.64173,0.0432 z"
         id="path923-0-3" />
      <text
         xml:space="preserve"
         id="text865-0-5"
         style="font-style:normal;font-weight:normal;font-size:10.5833px;line-height:1.25;font-family:sans-serif;white-space:pre;shape-inside:url(#rect867-0-7-1);fill:#2a2928;fill-opacity:1;stroke:none;stroke-width:0.723255;stroke-miterlimit:4;stroke-dasharray:none;"
         transform="matrix(1.3844865,0,0,1.3807924,38.081467,-4.0707438)"><tspan
           x="21.921875"
           y="118.13398"><tspan
             style="font-style:normal;font-variant:normal;font-weight:normal;font-stretch:normal;font-family:'Sitka Small';-inkscape-font-specification:'Sitka Small';stroke-width:0.723255;stroke-miterlimit:4;stroke-dasharray:none">PROPOSAL</tspan></tspan></text>
      <text
         xml:space="preserve"
         id="text865-9"
         style="font-style:normal;font-weight:normal;font-size:10.5833px;line-height:1.25;font-family:sans-serif;white-space:pre;shape-inside:url(#rect867-3-7);fill:#aa0000;fill-opacity:1;stroke:none;stroke-width:0.38174661;stroke-miterlimit:4;stroke-dasharray:none;"
         transform="matrix(2.4164055,0,0,2.839748,-14.433483,-187.83744)"><tspan
           x="21.921875"
           y="118.13398"><tspan
             style="font-style:normal;font-variant:normal;font-weight:normal;font-stretch:normal;font-family:'Sitka Small';-inkscape-font-specification:'Sitka Small';stroke-width:0.381747;stroke-miterlimit:4;stroke-dasharray:none">CAPSTONE</tspan></tspan></text>
      <rect
         style="font-variation-settings:normal;vector-effect:none;fill:#71bf26;fill-opacity:1;fill-rule:evenodd;stroke-width:1;stroke-linecap:butt;stroke-linejoin:miter;stroke-miterlimit:4;stroke-dasharray:none;stroke-dashoffset:0;stroke-opacity:1;stop-color:#000000"
         id="rect1381-6"
         width="102.03122"
         height="4.3120279"
         x="54.45816"
         y="120.68513"
         ry="0.39898783"
         rx="0.41889483" />
      <rect
         style="font-variation-settings:normal;vector-effect:none;fill:#a05a2c;fill-opacity:1;fill-rule:evenodd;stroke-width:1;stroke-linecap:butt;stroke-linejoin:miter;stroke-miterlimit:4;stroke-dasharray:none;stroke-dashoffset:0;stroke-opacity:1;stop-color:#000000"
         id="rect1381-1-2"
         width="102.03122"
         height="4.3120279"
         x="54.455475"
         y="160.65456"
         ry="0.39898783"
         rx="0.41889483" />
    </g>
  </g>
</svg>
